<svg xmlns="http://www.w3.org/2000/svg" viewBox="0 0 750 500"><path d="M44.33 471.91c211.85-.61 449.49-.62 661.34 0-211.85.62-449.49.61-661.34 0m-.44-161.85c212.13-.61 450.09-.62 662.23 0-212.13.62-450.09.61-662.23 0m394.57 47.09c74.74-.65 158.58-.66 233.32 0-74.74.66-158.58.65-233.32 0M66.4 425.54c185.62-.61 393.84-.62 579.45 0-185.62.62-393.84.61-579.45 0m30.73-70.98c50.5-.65 107.15-.66 157.65 0-50.5.66-107.15.65-157.65 0" fill="#94a3b8"/><path fill="#faa12f" d="M461.04 310.06H289.85s29.03-37.29 31.67-38.81c2.64-1.51 24.08-10.59 25.09-11.54s14.31-11.49 15.29-12.04 21.31-1.15 22.32-.63 8.67 9.67 9.38 9.78c.71.1 17.84 6.23 18.65 6.83.82.6 13.52 23.07 13.6 23.25.09.19 18.04 5.44 18.45 5.82s16.74 17.33 16.74 17.33Z"/><path d="M461.04 310.06H289.85s29.03-37.29 31.67-38.81c2.64-1.51 24.08-10.59 25.09-11.54s14.31-11.49 15.29-12.04 21.31-1.15 22.32-.63 8.67 9.67 9.38 9.78c.71.1 17.84 6.23 18.65 6.83.82.6 13.52 23.07 13.6 23.25.09.19 18.04 5.44 18.45 5.82s16.74 17.33 16.74 17.33Z" opacity=".3"/><path d="M430.92 293.44c-2.92-.06-5.84-.83-8.6-1.43-.01 0 .17.01.24-.03.15-.07.05-.03.01-.02l-.5.19a31 31 0 0 1-7.35 1.88 29.6 29.6 0 0 1 7.32-3.97c.33-.07.57-.02.85.03 2.92.72 5.5 1.76 8.03 3.36Zm-36.13-21.8c-3.27-.91-6.52-2.61-9.47-3.93.07.02.23.01.28 0l-.73.1a40 40 0 0 1-8.83-.01c3.05-1.1 6.2-1.63 9.38-2.05.33 0 .66.13.94.25a34.1 34.1 0 0 1 8.43 5.66Zm-40.38 7.38c-4.32.15-8.59-.54-12.86-.79 0 0 .25-.08.26-.1-.31.17-.55.28-.81.41a58.7 58.7 0 0 1-10.26 4.01c3.13-2.4 6.57-4.26 10.03-6.12.38-.23.89-.21 1.3-.19a50.3 50.3 0 0 1 12.34 2.77Zm34.09-13.82a36 36 0 0 1 8.48-2.65c.94-.12 1.47-.29 2.55-.12.2.04.51.19.69.39a91 91 0 0 1 4.22 4.75l-.48-.25c1.61.45 3.73.55 4.67 2.18q.495.69.9 1.44l-1.32-1.03c-.92-.85-1.74-.74-2.85-.85l-1.64-.14-.23-.02a88 88 0 0 1-4.11-4.07l-.59-.63c.05.05.14.1.15.11-2.89.11-7.09.83-10.43.88Z" opacity=".1"/><path fill="#faa12f" d="M383.21 310.06H231.58l11.58-15.14s20.72-5.9 21.94-6.56 22.94-19.33 25.92-20.32c2.98-.98 24.31 2.33 27.26 3.65 2.95 1.31 11.2 10.33 11.65 10.5.46.16 9.17 2.4 10.47 2.9 1.31.49 11.82 8.2 12.59 8.36.76.16 11.28 1.31 12.8 1.8s17.41 14.81 17.41 14.81Z"/><path d="M383.21 310.06H231.58l11.58-15.14s20.72-5.9 21.94-6.56 22.94-19.33 25.92-20.32c2.98-.98 24.31 2.33 27.26 3.65 2.95 1.31 11.2 10.33 11.65 10.5.46.16 9.17 2.4 10.47 2.9 1.31.49 11.82 8.2 12.59 8.36.76.16 11.28 1.31 12.8 1.8s17.41 14.81 17.41 14.81Z" opacity=".4"/><path d="M310.56 278a15.3 15.3 0 0 1 5.86-2.97c.24-.07.66-.08.92.04 1.88.89 3.62 1.91 5.12 3.42a18 18 0 0 1-5.9-1.59c-.19-.08.13.1.32.07-1.85.49-4.2 1.1-6.33 1.03Zm-48.7 18.31a20.6 20.6 0 0 1 5.94-4.8c.24-.11.58-.32 1.03-.29 2.34.38 4.62.84 6.81 1.88-2.36.46-4.7.4-7.05.09l.05.01c.12.02.31-.02.27-.01-2.13 1.11-4.56 2.47-7.04 3.13Zm65.76 1.64a28.4 28.4 0 0 1 9.18-2.49c.23 0 .62 0 .89.14a41.3 41.3 0 0 1 7.32 5.3 35 35 0 0 1-8.23-3.53c.05.04.23.08.24.08-2.98.23-6.28.73-9.39.49Zm-42.18-12.27c-2.56.09-5.12-.48-7.64-.55-.03 0-.05.01 0 0a.76.76 0 0 0 .32-.21 53 53 0 0 1-3.58 3.97l-1.47.12c-.89.08-1.33-.04-2.07.66l-1 .81c.31-.72.63-1.43 1.16-2.03.87-.65 1.9-.81 2.9-1.12l-.49.28c1.06-1.44 2.07-3 3.35-4.25.44-.26.87-.23 1.29-.21 2.59.32 5 1.23 7.25 2.52Z" opacity=".1"/><path fill="#faa12f" d="M623.69 425.54H387.14l15.19-27.84s30.51-16.6 32.24-17.83c1.72-1.23 22.54-34.85 26.76-36.7 4.22-1.84 39.9-5.19 44.08-2.73s18.19 21.48 18.84 21.79 35.21 1.93 37.06 2.85 16 19.03 17.08 19.33c1.08.31 17.51 9.57 19.67 10.49s25.63 30.63 25.63 30.63Z"/><path d="M623.69 425.54H387.14l15.19-27.84s30.51-16.6 32.24-17.83c1.72-1.23 22.54-34.85 26.76-36.7 4.22-1.84 39.9-5.19 44.08-2.73s18.19 21.48 18.84 21.79 35.21 1.93 37.06 2.85 16 19.03 17.08 19.33c1.08.31 17.51 9.57 19.67 10.49s25.63 30.63 25.63 30.63Z" opacity=".3"/><path d="M455.94 379.98c-3.9.52-7.93.28-11.78.31-.03 0 .14-.02.19-.07.11-.1 0-.03-.03 0l-.6.4a55.7 55.7 0 0 1-8.92 4.92 53 53 0 0 1 8.63-7.08c.34-.16.65-.15.97-.17 4 .07 7.73.62 11.55 1.7Zm77.53-8.43c-4.41-1.51-8.48-3.81-12.72-5.64l.27-.01c-.37.06-.66.08-.97.12-3.94.4-7.9.62-11.87.34a82 82 0 0 1 12.75-2.42c.4.04.7.17 1.03.31a57.2 57.2 0 0 1 11.51 7.31Zm47.19 21.89c-5.41-2.05-10.46-4.9-15.72-7.2l-.15-.05h.04c.04 0 .18 0 .19-.02a106 106 0 0 1-16 .86 133 133 0 0 1 15.92-2.83c3.04.85 6.02 2.93 8.71 4.45a79 79 0 0 1 7.02 4.78Zm-66.15 17.73a52.2 52.2 0 0 1 10.45-8.46c.59-.29 1.53-.92 2.42-.65 2.68 1.03 5.33 2.25 7.93 3.48l-.54-.03c1.49-.33 2.93-.65 4.5-.78 1.59-.05 2.97 1.11 4.28 1.89-.72-.22-1.44-.44-2.16-.63-.72-.17-1.44-.44-1.98-.24-1.47.38-2.98.92-4.44 1.41-2.63-.96-5.27-2.01-7.87-3.06l-.33-.13-.07-.03c.05.03.15.03.16.04-3.97 1.83-8.24 5.05-12.38 7.2Z" opacity=".1"/><path fill="#faa12f" d="M274.91 425.54h250.41s-33.77-29.44-37.62-30.9-35.22-10.25-36.7-11.16-29.63-17.75-31.06-18.28-31.17-1.11-32.65-.61-12.68 9.36-13.72 9.46-17.31 2.14-18.5 2.72-28.55 26.2-28.68 26.38-26.38 5.26-26.98 5.63-24.48 16.77-24.48 16.77Z"/><path d="M274.91 425.54h250.41s-33.77-29.44-37.62-30.9-35.22-10.25-36.7-11.16-29.63-17.75-31.06-18.28-31.17-1.11-32.65-.61-12.68 9.36-13.72 9.46-17.31 2.14-18.5 2.72-28.55 26.2-28.68 26.38-26.38 5.26-26.98 5.63-24.48 16.77-24.48 16.77Z" opacity=".4"/><path d="M403.19 396.39c-3.77-.36-8.78-1.74-12.49-2.54-.03 0 .13.01.18-.03a67 67 0 0 1-11.3 3.44 61 61 0 0 1 10.79-5.35c.38-.08.7 0 1.03.05a51.2 51.2 0 0 1 11.8 4.44Zm73.01 9.19c-4.75-1.69-9.14-4.2-13.73-6.18l.25-.01-1.04.13c-4.26.44-8.53.69-12.82.44a96.4 96.4 0 0 1 13.77-2.54c.42.04.74.18 1.09.32a65 65 0 0 1 12.47 7.83Zm-130.46 2.86c-6.24-.15-12.43-1.2-18.62-1.6h-.18.03c.04 0 .17-.07.17-.08-.42.24-.77.4-1.14.59a123 123 0 0 1-14.75 6.25c4.84-3.24 10-6 15.15-8.66 3.37-.25 7.18.76 10.45 1.3 2.99.6 5.96 1.3 8.9 2.21Zm83.67-21.41a58.8 58.8 0 0 1 14.05-3.63c.71-.02 1.87-.23 2.61.41a137 137 0 0 1 6.28 6.93l-.48-.25c1.81.42 3.71.65 5.44 1.51 1.15.94 1.93 2.19 2.74 3.4-.61-.54-1.22-1.08-1.83-1.6-.63-.49-1.22-1.09-1.85-1.13-1.61-.29-3.34-.43-4.98-.6a325 325 0 0 1-6.37-6.49l-.27-.28-.05-.06.13.1c-4.82.03-10.36 1.35-15.43 1.68Z" opacity=".1"/><path fill="#faa12f" d="m409.99 222.77 162.91-68.05s-24.8-7.18-26.33-6.94-18.47 6.4-19.98 6.2-25.11-10.36-28.78-9.62c-3.67.73-16.08 3.45-17.04 3.43-.96-.03-32.98-3.2-36.23-2.57s-17.75 7.44-19.49 9.1c-1 .95-3.03 11.44-3.76 12.7-.73 1.25-9.41 8.55-9.93 9.84-.59 1.46-4.42 15.42-4.65 15.89-.46.92 3.27 30.03 3.27 30.03Z"/><path d="m409.99 222.77 162.91-68.05s-24.8-7.18-26.33-6.94-18.47 6.4-19.98 6.2-25.11-10.36-28.78-9.62c-3.67.73-16.08 3.45-17.04 3.43-.96-.03-32.98-3.2-36.23-2.57s-17.75 7.44-19.49 9.1c-1 .95-3.03 11.44-3.76 12.7-.73 1.25-9.41 8.55-9.93 9.84-.59 1.46-4.42 15.42-4.65 15.89-.46.92 3.27 30.03 3.27 30.03Z" opacity=".3"/><path fill="#faa12f" d="M389.72 223.58c1.63-.87 5.29.68 5.99 1.43s.16 4.9-.18 5.5-1.36 3.8-2.14 3.93c-.78.12-3.43-.61-4.02-1.35-.58-.74-1.23-4.05-1.34-4.45-.1-.41.84-4.6 1.69-5.05Z"/><path d="M389.72 223.58c1.63-.87 5.29.68 5.99 1.43s.16 4.9-.18 5.5-1.36 3.8-2.14 3.93c-.78.12-3.43-.61-4.02-1.35-.58-.74-1.23-4.05-1.34-4.45-.1-.41.84-4.6 1.69-5.05Z" opacity=".3"/><path fill="#faa12f" d="M403.07 192.31c1.31-1.29 3.59-1 4.49-.48.89.52 2.41 4 2.25 4.68s-1.41 3.04-2 3.56c-.71.63-3.24 1.85-4.01 1.3-.77-.54-2.99-3.33-3.05-4.14-.03-.42 1.65-4.26 2.33-4.93Z"/><path d="M403.07 192.31c1.31-1.29 3.59-1 4.49-.48.89.52 2.41 4 2.25 4.68s-1.41 3.04-2 3.56c-.71.63-3.24 1.85-4.01 1.3-.77-.54-2.99-3.33-3.05-4.14-.03-.42 1.65-4.26 2.33-4.93Z" opacity=".3"/><path fill="#faa12f" d="M397.83 224.62c-.75-.51-.82-1.64-.65-2.11.17-.48 1.7-1.53 2.04-1.52s1.6.4 1.9.63c.37.28 1.19 1.39 1 1.81s-1.33 1.75-1.71 1.86c-.2.06-2.2-.4-2.59-.66Z"/><path d="M397.83 224.62c-.75-.51-.82-1.64-.65-2.11.17-.48 1.7-1.53 2.04-1.52s1.6.4 1.9.63c.37.28 1.19 1.39 1 1.81s-1.33 1.75-1.71 1.86c-.2.06-2.2-.4-2.59-.66Z" opacity=".3"/><path fill="#faa12f" d="M381.02 252.23c-.69.14-1.35-.44-1.52-.79s.08-1.77.27-1.95a4.8 4.8 0 0 1 1.38-.71c.36-.05 1.41.09 1.54.43s.25 1.68.1 1.95c-.08.14-1.42 1-1.77 1.07"/><path d="M381.02 252.23c-.69.14-1.35-.44-1.52-.79s.08-1.77.27-1.95a4.8 4.8 0 0 1 1.38-.71c.36-.05 1.41.09 1.54.43s.25 1.68.1 1.95c-.08.14-1.42 1-1.77 1.07" opacity=".3"/><path fill="#faa12f" d="M396 205.85c1.61-1.6 4.43-1.23 5.53-.59s2.97 4.94 2.77 5.77c-.19.83-1.74 3.75-2.47 4.39-.87.78-3.99 2.27-4.94 1.61-.95-.67-3.68-4.11-3.76-5.1-.04-.52 2.03-5.25 2.87-6.08"/><path d="M396 205.85c1.61-1.6 4.43-1.23 5.53-.59s2.97 4.94 2.77 5.77c-.19.83-1.74 3.75-2.47 4.39-.87.78-3.99 2.27-4.94 1.61-.95-.67-3.68-4.11-3.76-5.1-.04-.52 2.03-5.25 2.87-6.08" opacity=".3"/><path fill="#faa12f" d="M382.34 244.43c-.79-1.04-.38-2.62.07-3.2s3.04-1.33 3.5-1.15a8.8 8.8 0 0 1 2.33 1.74c.38.55 1 2.45.55 2.94s-2.62 1.8-3.19 1.77a13.1 13.1 0 0 1-3.26-2.09Z"/><path d="M382.34 244.43c-.79-1.04-.38-2.62.07-3.2s3.04-1.33 3.5-1.15a8.8 8.8 0 0 1 2.33 1.74c.38.55 1 2.45.55 2.94s-2.62 1.8-3.19 1.77a13.1 13.1 0 0 1-3.26-2.09Z" opacity=".3"/><path fill="#faa12f" d="M381.51 223.81c-.32-.18-.39-.63-.34-.83s.63-.68.77-.69.66.1.79.19c.16.1.53.52.47.7s-.47.76-.62.81a3.7 3.7 0 0 1-1.07-.17Z"/><path d="M381.51 223.81c-.32-.18-.39-.63-.34-.83s.63-.68.77-.69.66.1.79.19c.16.1.53.52.47.7s-.47.76-.62.81a3.7 3.7 0 0 1-1.07-.17Z" opacity=".3"/><path fill="#faa12f" d="M398.63 251.18c-.32-.18-.39-.63-.34-.83s.63-.68.77-.69.66.1.79.19c.16.1.53.52.47.7s-.47.76-.62.81a3.7 3.7 0 0 1-1.07-.17Z"/><path d="M398.63 251.18c-.32-.18-.39-.63-.34-.83s.63-.68.77-.69.66.1.79.19c.16.1.53.52.47.7s-.47.76-.62.81a3.7 3.7 0 0 1-1.07-.17Z" opacity=".3"/><path fill="#faa12f" d="M394.57 238.65c-.3.56-1.09.69-1.43.6s-1.19-1.08-1.2-1.32.16-1.14.31-1.37c.17-.28.88-.93 1.19-.83s1.32.8 1.42 1.06c.05.14-.12 1.57-.28 1.86Z"/><path d="M394.57 238.65c-.3.56-1.09.69-1.43.6s-1.19-1.08-1.2-1.32.16-1.14.31-1.37c.17-.28.88-.93 1.19-.83s1.32.8 1.42 1.06c.05.14-.12 1.57-.28 1.86Z" opacity=".3"/><path fill="#faa12f" d="M396.2 202.5c.05.26 1.46.96 1.88.86.43-.11 1.35-1.58 1.2-1.93-.15-.34-1.16-.41-1.37-.32s-1.78 1.07-1.71 1.39"/><path d="M396.2 202.5c.05.26 1.46.96 1.88.86.43-.11 1.35-1.58 1.2-1.93-.15-.34-1.16-.41-1.37-.32s-1.78 1.07-1.71 1.39" opacity=".3"/><path fill="#faa12f" d="M377.02 246.68c-.04-.26-1.4-1.04-1.83-.96s-1.43 1.51-1.3 1.86 1.13.47 1.35.4 1.83-.97 1.79-1.3Z"/><path d="M377.02 246.68c-.04-.26-1.4-1.04-1.83-.96s-1.43 1.51-1.3 1.86 1.13.47 1.35.4 1.83-.97 1.79-1.3Z" opacity=".3"/><path fill="#faa12f" d="M385.42 233.7c0-.26-1.25-1.22-1.69-1.19s-1.62 1.31-1.54 1.67 1.06.62 1.29.57c.23-.04 1.95-.72 1.94-1.05"/><path d="M385.42 233.7c0-.26-1.25-1.22-1.69-1.19s-1.62 1.31-1.54 1.67 1.06.62 1.29.57c.23-.04 1.95-.72 1.94-1.05" opacity=".3"/><path fill="#faa12f" d="M384.68 216.06c.74-1.4 1.54-2.71 2.71-2.75s3.75 2.29 3.38 3.29c-.38 1-.71 1.79-1.63 2.54s-3.88 2.5-4.25 1.58c-.38-.92-.54-4.04-.21-4.67Z"/><path d="M384.68 216.06c.74-1.4 1.54-2.71 2.71-2.75s3.75 2.29 3.38 3.29c-.38 1-.71 1.79-1.63 2.54s-3.88 2.5-4.25 1.58c-.38-.92-.54-4.04-.21-4.67Z" opacity=".3"/><path fill="#faa12f" d="M394.8 258.71c-1.51-.49-2.93-1.06-3.17-2.2s1.62-4.09 2.67-3.89 1.89.39 2.78 1.17 1.46 2.89.62 3.42-2.23 1.72-2.9 1.5"/><path d="M394.8 258.71c-1.51-.49-2.93-1.06-3.17-2.2s1.62-4.09 2.67-3.89 1.89.39 2.78 1.17 1.46 2.89.62 3.42-2.23 1.72-2.9 1.5" opacity=".3"/><path fill="#faa12f" d="M387.3 207.86c-.03-.32 1.3-1.84 1.6-1.93s1.63.11 1.78.19 1.14.93 1.13 1.1-1.11 1.86-1.34 1.88c-.64.07-3.13-.77-3.17-1.24"/><path d="M387.3 207.86c-.03-.32 1.3-1.84 1.6-1.93s1.63.11 1.78.19 1.14.93 1.13 1.1-1.11 1.86-1.34 1.88c-.64.07-3.13-.77-3.17-1.24" opacity=".3"/><path d="M478.58 150.29c-2.51 1.13-5.25 1.61-7.86 2.22 0 0-.13.05.06-.04a.43.43 0 0 0 .16-.14l.07-.11-.38.52a28.5 28.5 0 0 1-4.98 5.26 28.7 28.7 0 0 1 3.62-6.76c.08-.11.1-.15.24-.29.1-.13.51-.33.57-.33 2.84-.66 5.61-.74 8.5-.33m19.44 2.12c-3.14.41-7.26.19-9.91.08 0 0 .14-.06.22-.13.07-.06.03-.02.03-.02l-.1.08a34.2 34.2 0 0 1-7.65 4.35c1.9-2.31 4.17-4.13 6.48-5.96.23-.19.53-.24.69-.26 3.56-.03 6.92.7 10.25 1.86Zm-32.38 16.52c-3.49 1.93-7.38 3.13-10.97 4.71-.02 0-.05.04.04-.04a.6.6 0 0 0 .11-.15l.03-.06-.16.3a57 57 0 0 1-6.51 9.18 66.7 66.7 0 0 1 5.06-10.62c.24-.25.4-.32.63-.45a40.6 40.6 0 0 1 11.77-2.87m-49.07 6.71c1.1-1.72 6.37-8.44 8.53-7.41a90 90 0 0 1 5.93 2.9l-.58-.03c1.14-.27 2.15-.52 3.36-.58.65 0 1.18.4 1.71.71.47.3.92.62 1.36.97l-1.59-.45c-.4-.09-1.04-.34-1.39-.23-.44.11-.97.31-1.46.51l-1.74.68a96 96 0 0 1-6.36-2.64c.28.05.28 0 .28.01-2.8 1.58-5.22 3.91-8.05 5.57Z" opacity=".1"/><path fill="#455a64" d="M620.49 181.8v105.83h82.66v-56.57l-21.86-45.12a7.35 7.35 0 0 0-6.61-4.14h-54.2Z"/><path d="M639.8 227.96c.5 13.79.48 29.12 0 42.92-.48-13.8-.5-29.13 0-42.92m17.47 6.44c.07 1.77.16 3.65.22 5.54-3.76.12-9.09.16-12.91.18h-.39v-.39l.04-5.33v-.35h.34c4.23.02 8.53.19 12.7.35m0 0c-3.71.12-9.06.33-12.7.34l.34-.34.04 5.33-.39-.39c3.75.02 9 .07 12.7.18l-.21.21c.05-1.73.14-3.48.21-5.33Z" opacity=".1"/><path d="M644.58 236.57v-2.17h12.7v2.17z" opacity=".1"/><path fill="#37474f" d="M672.2 192.87a2.78 2.78 0 0 0-2.52-1.6h-31.63c-.72 0-1.25.66-1.1 1.36l6.04 33.88c.11.51.57.88 1.1.88h39.88a2.78 2.78 0 0 0 2.52-3.96l-14.28-30.56Z"/><path d="m669.04 191.27-27.45 27.45-1.16-6.58 20.86-20.87zm12.27 21.09-15.02 15.03h-7.76l20.31-20.31zm-32.55-21.09-10.23 10.23-1.18-6.57 3.66-3.66zm27.9 11.15-24.98 24.97h-3.73l27.52-27.52zm-23.35-11.15-14.1 14.1-.09-.51 13.59-13.59zm24.22 13-23.12 23.12h-.59l23.52-23.52zm7.42 15.88-7.24 7.24h-.59l7.64-7.63z" fill="#455a64"/><path fill="#263238" d="M684.82 229.12h-41.43a2.18 2.18 0 0 1-2.14-1.72l-6.28-35.24a2.19 2.19 0 0 1 2.15-2.62h32.86c1.51 0 2.91.89 3.55 2.26l14.84 31.75a3.9 3.9 0 0 1-3.54 5.57Zm-47.7-37.53s-.08.02-.11.05q-.045.045-.03.12l6.28 35.24s.06.07.13.07h41.43c.65 0 1.22-.31 1.57-.86s.39-1.2.12-1.79l-14.84-31.74a1.89 1.89 0 0 0-1.69-1.08h-32.86Z"/><path fill="#455a64" d="M603.82 237.69h16.67v33.18h-16.67z"/><path fill="#c7c7c7" d="M478.14 235.49h12.7v35.39h-12.7zm-41.2 35.39h267.83v16.75H436.94z"/><path fill="#dbdbdb" d="M693.69 273.2h12.42v12.09h-12.42z"/><path fill="#c7c7c7" d="M678.44 286.72h-4.99c0-11.64-9.47-21.12-21.12-21.12s-21.12 9.47-21.12 21.12h-4.99c0-14.4 11.71-26.11 26.11-26.11s26.11 11.71 26.11 26.11"/><g fill="#263238"><path d="m674.01 282.98-.32-.04.37 3.09.31-.11a18.4 18.4 0 0 0-.34-2.94Zm-.47-.71.29-.16c-.22-.97-.51-1.92-.86-2.83l-.33.02.9 2.98Zm.35 7.54.33-.05c.12-.97.18-1.96.17-2.95l-.32-.09-.18 3.1Zm-1.24-11.37c-.38-.91-.83-1.8-1.33-2.64l-.32.08 1.4 2.77.26-.21Zm.43 15.07h.33c.29-.93.52-1.89.68-2.88l-.3-.15-.71 3.02Zm-4.31-20.71 1.86 2.49.21-.25a23 23 0 0 0-1.77-2.37zm2.86 24.21.32.06c.45-.87.84-1.78 1.17-2.72l-.27-.2-1.23 2.86Zm-5.59-26.85 2.27 2.13.17-.28a20.6 20.6 0 0 0-2.15-2.03l-.28.19Zm3.55 30.05.31.11c.59-.79 1.14-1.61 1.62-2.47l-.22-.24zm-6.69-32.18 2.6 1.7.12-.31a22 22 0 0 0-2.48-1.62zm4.14 34.99.28.16c.72-.67 1.4-1.39 2.03-2.15l-.18-.27-2.13 2.27Zm-7.6-36.54 2.86 1.23.06-.33c-.88-.45-1.78-.84-2.72-1.17zm4.59 38.85.25.21q1.245-.81 2.37-1.77l-.13-.3zm-8.27-39.77 3.02.71v-.33c-.93-.29-1.89-.52-2.88-.68l-.15.3Zm4.91 41.54.21.25c.92-.39 1.8-.83 2.64-1.33l-.08-.32zm-8.6-42.13-.09.31 3.1.18-.05-.32c-.97-.12-1.96-.18-2.95-.17Zm5.15 43.56c.97-.22 1.92-.5 2.83-.85l-.02-.33-2.97.9zm-7.51-43.41c-.49.06-.98.13-1.46.23l-.04.32 3.09-.37-.11-.31q-.735.03-1.47.12Zm3.7 43.93a19 19 0 0 0 2.95-.35l.03-.32-3.09.36.11.3Zm-8.87-42.68.02.33 2.98-.9-.16-.28c-.97.22-1.92.5-2.83.85Zm5.03 42.54c.97.12 1.96.18 2.95.17l.09-.31-3.1-.18zm-8.5-40.88.08.32 2.77-1.4-.21-.26c-.91.38-1.8.83-2.64 1.33Zm4.74 40.07c.94.29 1.9.52 2.88.68l.14-.29-3.02-.71zm-7.87-37.83.13.3 2.49-1.86-.25-.21a22 22 0 0 0-2.37 1.77m4.3 36.38c.87.45 1.78.84 2.72 1.17l.19-.27-2.86-1.22-.06.32Zm-6.99-33.64.18.27 2.13-2.26-.28-.16c-.72.67-1.4 1.39-2.03 2.15m3.74 31.59c.79.6 1.61 1.14 2.48 1.63l.23-.22-2.6-1.71zm-5.91-28.42.22.24 1.7-2.6-.3-.11c-.59.79-1.14 1.61-1.62 2.47m3.06 25.84c.67.73 1.39 1.41 2.16 2.03l.26-.18-2.26-2.13zm-4.65-22.34.27.19 1.23-2.86-.32-.06c-.45.87-.84 1.78-1.17 2.72Zm2.29 19.31q.81 1.245 1.77 2.37l.3-.13-1.86-2.49zm-3.24-15.58.29.14.71-3.02h-.33c-.29.94-.52 1.9-.68 2.88Zm1.44 12.19c.39.92.83 1.8 1.33 2.64l.32-.08-1.4-2.77zm-1.25-11.37-.32.06c-.12.97-.18 1.96-.17 2.95l.31.09zm.35 7.55-.28.16c.22.98.5 1.93.85 2.84l.32-.02-.9-2.97Zm-.5-3.76-.3.11a18 18 0 0 0 .35 2.94l.32.03-.37-3.09Z"/><path d="m674.05 286.03.31-.11c.02.3.03.59.03.89l-.32-.09-.18 3.1.33-.05c-.03.29-.08.59-.13.88l-.3-.15-.71 3.02h.33l-.28.85-.27-.2-1.23 2.86.32.06c-.13.26-.27.53-.42.78l-.22-.24-1.71 2.6.31.11-.55.7-.18-.27-2.13 2.27.28.16-.66.59-.13-.3-2.49 1.86.25.21-.76.47-.08-.32-2.77 1.4.21.25c-.27.12-.55.23-.83.33l-.02-.33-2.97.9.16.28-.87.18.03-.32-3.09.36.11.3c-.29.02-.59.03-.88.03l.09-.31-3.1-.18.06.32a9 9 0 0 1-.88-.13l.14-.29-3.02-.71v.32l-.84-.28.19-.27-2.86-1.22-.06.32c-.26-.13-.52-.27-.77-.42l.23-.22-2.6-1.71-.11.3a13 13 0 0 1-.69-.55l.26-.18-2.26-2.13-.16.28c-.2-.21-.4-.43-.59-.66l.3-.13-1.86-2.49-.21.25-.47-.75.32-.08-1.4-2.77-.25.21c-.11-.27-.23-.55-.33-.83l.32-.02-.9-2.97-.28.16c-.07-.28-.12-.57-.18-.86l.32.03-.37-3.09-.3.11c-.02-.29-.03-.59-.03-.88l.31.09.18-3.1-.32.06c.03-.29.07-.59.13-.88l.29.14.71-3.02h-.33l.28-.84.27.19 1.23-2.86-.32-.06.42-.78.22.24 1.7-2.6-.3-.11.55-.7.18.27 2.13-2.26-.28-.16c.21-.21.43-.4.66-.59l.13.3 2.49-1.86-.25-.21.76-.47.08.32 2.77-1.4-.21-.26c.27-.12.55-.23.83-.33l.02.33 2.98-.9-.16-.28.87-.18-.04.32 3.09-.37-.11-.31c.3-.02.59-.03.89-.03l-.09.31 3.1.18-.05-.32c.29.03.59.07.88.13l-.15.3 3.02.71v-.33l.85.28-.2.27 2.86 1.23.06-.33.78.42-.24.23 2.6 1.7.12-.31.7.55-.28.19 2.27 2.13.17-.28c.2.21.4.43.59.66l-.3.13 1.86 2.49.21-.25.47.76-.32.08 1.4 2.77.26-.21c.12.27.23.55.33.83l-.33.02.9 2.98.29-.16c.06.29.13.58.17.87l-.32-.04.37 3.09Z"/><path d="m651.33 265.31-3.09.37.04-.33.11-1 2.48-.3.34.96zm-3.76.5-2.98.9-.02-.33-.06-1 2.4-.72.5.87zm-3.62 1.16-2.77 1.39-.08-.32-.24-.97 2.24-1.13.64.77zm-3.35 1.75-2.49 1.86-.13-.3-.41-.92 2.01-1.5.77.65zm-3 2.32-2.13 2.26-.18-.27-.56-.84 1.71-1.82.88.51zm-2.56 2.8-1.7 2.6-.22-.24-.7-.72 1.37-2.1.95.35zm-2.02 3.2-1.23 2.86-.27-.2-.81-.59.99-2.3.99.17zm-1.45 3.51-.71 3.02-.29-.14-.91-.45.58-2.44 1 .01zm-.81 3.7-.18 3.1-.31-.09-.97-.28.15-2.5.99-.17zm-.15 3.79.36 3.09-.32-.04-1.01-.11-.29-2.49.96-.34zm1.4 6.73-.33.02-1 .07-.73-2.4.88-.51.28-.15zm1.65 3.41-.32.08-.98.24-1.13-2.24.78-.64.25-.21zm2.22 3.07-.3.14-.93.41-1.49-2.01.65-.78.21-.25zm2.72 2.65-.27.18-.84.56-1.83-1.72.51-.87.17-.28zm3.14 2.13-.24.22-.73.7-2.09-1.37.35-.96.11-.3zm3.45 1.54-.19.27-.6.81-2.3-.99.18-.99.06-.32zm3.68.93-.15.3-.44.9-2.44-.57v-1.34zm3.78.28-.09.31-.28.97-2.51-.14-.17-1-.05-.32zm3.77-.39-.03.32-.12 1.01-2.48.3-.35-.96-.11-.3zm3.64-1.03.03.32.07 1.01-2.41.72-.5-.88-.16-.28zm3.74-.35-2.24 1.12-.65-.77-.21-.26 2.78-1.39.08.32zm3.29-2.3-2.01 1.5-.77-.65-.25-.22 2.49-1.85.13.3zm2.84-2.83-1.71 1.82-.87-.51-.29-.16 2.13-2.26.18.27zm2.31-3.28-1.37 2.09-.95-.35-.31-.11 1.71-2.6.22.24zm1.71-3.64-.99 2.31-.99-.19-.32-.06 1.22-2.85.27.2zm1.04-3.87-.57 2.44-1-.01h-.33l.71-3.02.3.14zm.37-4-.15 2.5-.99.17-.33.06.18-3.1.32.09zm-.34-4 .29 2.49-.95.34-.31.11-.36-3.09.32.04zm-.31-1.48-.87.5-.29.16-.9-2.97.33-.02 1.01-.07zm-1.29-3.8-.76.64-.26.21-1.4-2.77.33-.08.97-.24zm-1.92-3.53-.64.77-.22.25-1.86-2.49.3-.13.92-.4zm-2.5-3.13-.51.87-.16.28-2.27-2.12.28-.19.84-.56zm-3.01-2.66-.35.95-.12.31-2.59-1.7.23-.23.73-.7zm-3.43-2.09-.18.99-.06.33-2.86-1.23.2-.26.6-.81zm-3.74-1.46v1l-.01.34-3.02-.71.15-.3.44-.9zm-3.71.53-3.1-.18.09-.31.29-.97 2.5.14.17.99z"/></g><path fill="#37474f" d="M662.87 285.79a10.62 10.62 0 1 1-21.08 2.5 10.62 10.62 0 0 1 21.08-2.5"/><path fill="#dbdbdb" d="M661.45 285.96a9.19 9.19 0 1 1-18.25 2.16 9.19 9.19 0 0 1 18.25-2.16"/><path fill="#263238" d="M656.37 286.56a4.08 4.08 0 0 1-8.08.96 4.08 4.08 0 0 1 8.08-.96"/><path fill="#263238" d="M652.95 292.29a5.3 5.3 0 1 1-1.23-10.53 5.3 5.3 0 0 1 1.23 10.53m-1.19-10.05a4.83 4.83 0 1 0 1.14 9.58 4.83 4.83 0 0 0-1.14-9.58m.58-2.48c.06.47-.28.9-.75.96a.86.86 0 0 1-.96-.75.86.86 0 0 1 .75-.96c.47-.06.9.28.96.75m-3.64.97a.86.86 0 1 1-1.39 1.03.86.86 0 0 1 1.39-1.03m-2.67 2.66a.86.86 0 1 1-.68 1.58.85.85 0 0 1-.45-1.13.85.85 0 0 1 1.13-.45m-.97 3.64c.47-.06.9.28.96.75s-.28.9-.75.96a.86.86 0 0 1-.96-.75.86.86 0 0 1 .75-.96m.97 3.64a.87.87 0 0 1 1.21.17.86.86 0 1 1-1.39 1.03.87.87 0 0 1 .17-1.21Zm2.66 2.66a.85.85 0 0 1 1.13-.45c.44.19.64.7.45 1.13a.85.85 0 0 1-1.13.45.85.85 0 0 1-.45-1.13m3.63.98a.86.86 0 0 1 .75-.96c.47-.06.9.28.96.75s-.28.9-.75.96a.86.86 0 0 1-.96-.75m3.64-.97a.87.87 0 0 1 .17-1.21c.38-.28.92-.21 1.21.18s.21.92-.18 1.21a.87.87 0 0 1-1.21-.17Zm2.67-2.66a.85.85 0 0 1-.45-1.13.85.85 0 0 1 1.13-.45c.44.19.64.69.45 1.13a.85.85 0 0 1-1.13.45m.97-3.64a.86.86 0 0 1-.96-.75.86.86 0 0 1 .75-.96c.47-.06.9.28.96.75s-.28.9-.75.96m-.97-3.64a.87.87 0 0 1-1.21-.17.87.87 0 0 1 .17-1.21.86.86 0 0 1 1.21.18c.28.38.21.92-.17 1.21Zm-2.66-2.66a.85.85 0 0 1-1.13.45.86.86 0 1 1 .68-1.58c.44.19.64.69.45 1.13"/><path fill="#c7c7c7" d="M578.04 286.72h-4.99c0-11.64-9.47-21.12-21.12-21.12s-21.12 9.47-21.12 21.12h-4.99c0-14.4 11.71-26.11 26.11-26.11s26.11 11.71 26.11 26.11"/><g fill="#263238"><path d="m573.62 282.98-.32-.04.37 3.09.31-.11a18.4 18.4 0 0 0-.34-2.94Zm-.47-.71.29-.16c-.22-.97-.51-1.92-.86-2.83l-.33.02.9 2.98Zm.35 7.54.33-.05c.12-.97.18-1.96.17-2.95l-.32-.09-.18 3.1Zm-1.24-11.37c-.38-.91-.83-1.8-1.33-2.64l-.32.08 1.4 2.77.26-.21Zm.43 15.07h.33c.29-.93.52-1.89.68-2.88l-.3-.15-.71 3.02Zm-4.31-20.71 1.86 2.49.21-.25a23 23 0 0 0-1.77-2.37zm2.86 24.21.32.06c.45-.87.84-1.78 1.17-2.72l-.27-.2-1.23 2.86Zm-5.59-26.85 2.27 2.13.17-.28a20.6 20.6 0 0 0-2.15-2.03l-.28.19Zm3.55 30.05.31.11c.59-.79 1.14-1.61 1.62-2.47l-.22-.24zm-6.69-32.18 2.6 1.7.12-.31a22 22 0 0 0-2.48-1.62zm4.14 34.99.28.16c.72-.67 1.4-1.39 2.03-2.15l-.18-.27-2.13 2.27Zm-7.6-36.54 2.86 1.23.06-.33c-.88-.45-1.78-.84-2.72-1.17zm4.59 38.85.25.21q1.245-.81 2.37-1.77l-.13-.3zm-8.27-39.77 3.02.71v-.33c-.93-.29-1.89-.52-2.88-.68l-.15.3Zm4.91 41.54.21.25c.92-.39 1.8-.83 2.64-1.33l-.08-.32zm-8.6-42.13-.09.31 3.1.18-.05-.32c-.97-.12-1.96-.18-2.95-.17Zm5.15 43.56c.97-.22 1.92-.5 2.83-.85l-.02-.33-2.97.9zm-7.51-43.41c-.49.06-.98.13-1.46.23l-.04.32 3.09-.37-.11-.31q-.735.03-1.47.12Zm3.7 43.93a18.4 18.4 0 0 0 2.95-.35l.03-.32-3.09.36.11.3Zm-8.87-42.68.02.33 2.98-.9-.16-.28c-.97.22-1.92.5-2.83.85Zm5.03 42.54c.97.12 1.96.18 2.95.17l.09-.31-3.1-.18zm-8.5-40.88.08.32 2.77-1.4-.21-.26c-.91.38-1.8.83-2.64 1.33Zm4.74 40.07c.94.29 1.9.52 2.88.68l.14-.29-3.02-.71zm-7.87-37.83.13.3 2.49-1.86-.25-.21a22 22 0 0 0-2.37 1.77m4.3 36.38c.87.45 1.78.84 2.72 1.17l.19-.27-2.85-1.22zm-6.99-33.64.18.27 2.13-2.26-.28-.16c-.72.67-1.4 1.39-2.03 2.15m3.74 31.59c.79.6 1.61 1.14 2.48 1.63l.23-.22-2.6-1.71zm-5.91-28.42.22.24 1.7-2.6-.3-.11c-.59.79-1.14 1.61-1.62 2.47m3.06 25.84c.67.73 1.39 1.41 2.16 2.03l.27-.18-2.26-2.13-.16.28Zm-4.65-22.34.27.19 1.23-2.86-.32-.06c-.45.87-.84 1.78-1.17 2.72Zm2.29 19.31q.81 1.245 1.77 2.37l.3-.13-1.86-2.49zm-3.24-15.58.29.14.71-3.02h-.33c-.29.94-.52 1.9-.68 2.88Zm1.44 12.19c.39.92.83 1.8 1.33 2.64l.31-.08-1.4-2.77-.25.21Zm-1.25-11.37-.32.06c-.12.97-.18 1.96-.17 2.95l.31.09zm.35 7.55-.28.16c.22.98.5 1.93.85 2.84l.32-.02-.9-2.97Zm-.5-3.76-.3.11a18 18 0 0 0 .35 2.94l.32.03-.37-3.09Z"/><path d="m573.66 286.03.31-.11c.02.3.03.59.03.89l-.32-.09-.18 3.1.33-.05c-.03.29-.08.59-.13.88l-.3-.15-.71 3.02h.33l-.28.85-.27-.2-1.23 2.86.32.06c-.13.26-.27.53-.42.78l-.22-.24-1.71 2.6.31.11-.55.7-.18-.27-2.13 2.27.28.16-.66.59-.13-.3-2.49 1.86.25.21-.76.47-.08-.32-2.77 1.4.21.25c-.27.12-.55.23-.82.33l-.02-.33-2.97.9.16.28-.87.18.03-.32-3.09.36.11.3c-.29.02-.59.03-.88.03l.09-.31-3.1-.18.06.32a9 9 0 0 1-.88-.13l.14-.29-3.02-.71v.32l-.84-.28.19-.27-2.85-1.22-.06.32c-.26-.13-.52-.27-.77-.42l.23-.22-2.6-1.71-.11.3a13 13 0 0 1-.69-.55l.27-.18-2.26-2.13-.16.28c-.2-.21-.4-.43-.59-.66l.3-.13-1.86-2.49-.21.25-.47-.75.31-.08-1.4-2.77-.25.21c-.11-.27-.23-.55-.33-.83l.32-.02-.9-2.97-.28.16c-.07-.28-.12-.57-.18-.86l.32.03-.37-3.09-.3.11c-.02-.29-.03-.59-.03-.88l.31.09.18-3.1-.32.06c.03-.29.07-.59.13-.88l.29.14.71-3.02h-.33l.28-.84.27.19 1.23-2.86-.32-.06.42-.78.22.24 1.7-2.6-.3-.11.55-.7.18.27 2.13-2.26-.28-.16c.21-.21.43-.4.66-.59l.13.3 2.49-1.86-.25-.21.76-.47.08.32 2.77-1.4-.21-.26c.27-.12.55-.23.83-.33l.02.33 2.98-.9-.16-.28.87-.18-.04.32 3.09-.37-.11-.31c.3-.02.59-.03.89-.03l-.09.31 3.1.18-.05-.32c.29.03.59.07.88.13l-.15.3 3.02.71v-.33l.85.28-.2.27 2.86 1.23.06-.33.78.42-.24.23 2.6 1.7.12-.31.7.55-.28.19 2.27 2.13.17-.28c.2.21.4.43.59.66l-.3.13 1.86 2.49.21-.25.47.76-.32.08 1.4 2.77.26-.21c.12.27.23.55.33.83l-.33.02.9 2.98.29-.16c.06.29.13.58.17.87l-.32-.04.37 3.09Z"/><path d="m550.93 265.31-3.09.37.04-.33.11-1 2.49-.3.34.96zm-3.76.5-2.97.9-.02-.33-.07-1 2.4-.72.5.87zm-3.61 1.16-2.78 1.39-.07-.32-.24-.97 2.24-1.13.64.77zm-3.36 1.75-2.49 1.86-.13-.3-.4-.92 2-1.5.77.65zm-3 2.32-2.13 2.26-.18-.27-.56-.84 1.72-1.82.87.51zm-2.55 2.8-1.7 2.6-.23-.24-.7-.72 1.37-2.1.95.35zm-2.03 3.2-1.23 2.86-.26-.2-.81-.59.98-2.3 1 .17zm-1.44 3.51-.71 3.02-.3-.14-.9-.45.57-2.44 1.01.01zm-.81 3.7-.18 3.1-.31-.09-.97-.28.14-2.5 1-.17zm-.16 3.79.37 3.09-.32-.04-1.01-.11-.3-2.49.96-.34zm1.4 6.73-.32.02-1.01.07-.72-2.4.88-.51.27-.15zm1.65 3.41-.31.08-.98.24-1.13-2.24.78-.64.25-.21zm2.22 3.07-.3.14-.92.41-1.5-2.01.65-.78.21-.25zm2.72 2.65-.26.18-.85.56-1.82-1.72.51-.87.16-.28zm3.14 2.13-.23.22-.73.7-2.1-1.37.35-.96.11-.3zm3.46 1.54-.2.27-.59.81-2.3-.99.17-.99.06-.32zm3.67.93-.14.3-.45.9-2.44-.57.01-1.01v-.33zm3.78.28-.09.31-.28.97-2.5-.14-.17-1-.06-.32zm3.78-.39-.04.32-.11 1.01-2.49.3-.34-.96-.11-.3zm3.64-1.03.02.32.07 1.01-2.4.72-.5-.88-.16-.28zm3.73-.35-2.24 1.12-.64-.77-.21-.26 2.77-1.39.08.32zm3.3-2.3-2.01 1.5-.77-.65-.26-.22 2.49-1.85.14.3zm2.84-2.83-1.72 1.82-.87-.51-.28-.16 2.13-2.26.18.27zm2.31-3.28-1.37 2.09-.95-.35-.31-.11 1.71-2.6.22.24zm1.7-3.64-.99 2.31-.99-.19-.32-.06 1.23-2.85.26.2zm1.05-3.87-.57 2.44-1.01-.01h-.33l.71-3.02.3.14zm.36-4-.14 2.5-.99.17-.33.06.18-3.1.31.09zm-.34-4 .3 2.49-.96.34-.3.11-.37-3.09.33.04zm-.31-1.48-.87.5-.29.16-.89-2.97.33-.02 1-.07zm-1.28-3.8-.77.64-.26.21-1.39-2.77.32-.08.98-.24zm-1.92-3.53-.65.77-.21.25-1.86-2.49.3-.13.92-.4zm-2.51-3.13-.5.87-.17.28-2.26-2.12.27-.19.84-.56zm-3.01-2.66-.35.95-.11.31-2.6-1.7.24-.23.73-.7zm-3.42-2.09-.18.99-.07.33-2.85-1.23.2-.26.59-.81zm-3.74-1.46-.01 1v.34l-3.02-.71.14-.3.45-.9zm-3.71.53-3.1-.18.09-.31.28-.97 2.5.14.17.99z"/></g><path fill="#37474f" d="M562.48 285.79a10.62 10.62 0 1 1-21.08 2.5 10.62 10.62 0 0 1 21.08-2.5"/><path fill="#dbdbdb" d="M561.06 285.96a9.19 9.19 0 1 1-18.25 2.16 9.19 9.19 0 0 1 18.25-2.16"/><path fill="#263238" d="M555.97 286.56a4.08 4.08 0 0 1-8.08.96 4.08 4.08 0 0 1 8.08-.96"/><path fill="#263238" d="M552.56 292.29a5.3 5.3 0 1 1-1.23-10.53 5.3 5.3 0 0 1 1.23 10.53m-1.19-10.05a4.83 4.83 0 1 0 1.14 9.58 4.83 4.83 0 0 0-1.14-9.58m.57-2.48c.06.47-.28.9-.75.96s-.9-.28-.96-.75.28-.9.75-.96.9.28.96.75m-3.64.97c.28.38.21.92-.17 1.21a.86.86 0 0 1-1.21-.18.87.87 0 0 1 .17-1.21.86.86 0 0 1 1.21.18m-2.66 2.66c.44.19.64.7.45 1.13a.85.85 0 0 1-1.13.45.85.85 0 0 1-.45-1.13.85.85 0 0 1 1.13-.45m-.98 3.64c.47-.06.9.28.96.75s-.28.9-.75.96a.86.86 0 0 1-.96-.75.86.86 0 0 1 .75-.96m.97 3.64a.87.87 0 0 1 1.21.17.86.86 0 1 1-1.39 1.03.87.87 0 0 1 .17-1.21Zm2.66 2.66a.85.85 0 0 1 1.13-.45c.44.19.64.7.45 1.13a.85.85 0 0 1-1.13.45.85.85 0 0 1-.45-1.13m3.64.98c-.06-.47.28-.9.75-.96s.9.28.96.75-.28.9-.75.96a.86.86 0 0 1-.96-.75m3.63-.97a.86.86 0 1 1 1.39-1.03c.29.39.21.92-.17 1.21a.87.87 0 0 1-1.21-.17Zm2.67-2.66a.85.85 0 0 1-.45-1.13.86.86 0 0 1 1.13-.45c.44.19.64.69.45 1.13a.85.85 0 0 1-1.13.45m.98-3.64a.86.86 0 0 1-.96-.75.86.86 0 0 1 .75-.96c.47-.06.9.28.96.75s-.28.9-.75.96m-.97-3.64a.87.87 0 0 1-1.21-.17.87.87 0 0 1 .17-1.21c.38-.28.92-.21 1.21.18s.21.92-.18 1.21Zm-2.66-2.66a.85.85 0 0 1-1.13.45.86.86 0 0 1-.45-1.13.85.85 0 0 1 1.13-.45c.44.19.64.69.45 1.13"/><path fill="#c7c7c7" d="M521.2 286.72h-4.99c0-11.64-9.47-21.12-21.12-21.12s-21.12 9.47-21.12 21.12h-4.99c0-14.4 11.71-26.11 26.11-26.11s26.11 11.71 26.11 26.11"/><g fill="#263238"><path d="m516.77 282.98-.32-.04.37 3.09.31-.11a18.4 18.4 0 0 0-.34-2.94Zm-.47-.71.29-.16c-.22-.97-.51-1.92-.86-2.83l-.33.02.9 2.98Zm.35 7.54.33-.05c.12-.97.18-1.96.17-2.95l-.32-.09-.18 3.1Zm-1.24-11.37c-.38-.91-.83-1.8-1.33-2.64l-.32.08 1.4 2.77.26-.21Zm.43 15.07h.33c.29-.93.52-1.89.68-2.88l-.3-.15-.71 3.02Zm-4.3-20.71 1.86 2.49.21-.25a23 23 0 0 0-1.77-2.37zm2.86 24.21.32.06c.45-.87.84-1.78 1.17-2.72l-.27-.2-1.23 2.86Zm-5.59-26.85 2.27 2.13.17-.28a20.6 20.6 0 0 0-2.15-2.03l-.28.19Zm3.55 30.05.31.11c.59-.79 1.14-1.61 1.62-2.47l-.22-.24zm-6.69-32.18 2.6 1.7.12-.31a22 22 0 0 0-2.48-1.62zm4.14 34.99.28.16c.72-.67 1.4-1.39 2.03-2.15l-.18-.27-2.13 2.27Zm-7.6-36.54 2.86 1.23.06-.33c-.88-.45-1.78-.84-2.72-1.17zm4.59 38.85.25.21q1.245-.81 2.37-1.77l-.13-.3zm-8.27-39.77 3.02.71v-.33c-.93-.29-1.89-.52-2.88-.68l-.15.3Zm4.91 41.54.21.25c.92-.39 1.8-.83 2.64-1.33l-.08-.32zm-8.6-42.13-.09.31 3.1.18-.05-.32c-.97-.12-1.96-.18-2.95-.17Zm5.15 43.56c.97-.22 1.92-.5 2.83-.85l-.02-.33-2.97.9zm-7.51-43.41c-.49.06-.98.13-1.46.23l-.04.32 3.09-.37-.11-.31q-.735.03-1.47.12Zm3.7 43.93a19 19 0 0 0 2.95-.35l.03-.32-3.09.36.11.3Zm-8.87-42.68.02.33 2.98-.9-.16-.28c-.97.22-1.92.5-2.83.85Zm5.03 42.54c.97.12 1.96.18 2.95.17l.09-.31-3.1-.18zm-8.5-40.88.08.32 2.77-1.4-.21-.26c-.91.38-1.8.83-2.64 1.33Zm4.74 40.07c.94.29 1.9.52 2.88.68l.14-.29-3.02-.71zm-7.87-37.83.13.3 2.49-1.86-.25-.21a22 22 0 0 0-2.37 1.77m4.3 36.38c.87.45 1.78.84 2.72 1.17l.19-.27-2.85-1.22zm-6.99-33.64.18.27 2.13-2.26-.28-.16c-.72.67-1.4 1.39-2.03 2.15m3.74 31.59c.79.6 1.61 1.14 2.48 1.63l.23-.22-2.6-1.71zm-5.91-28.42.22.24 1.7-2.6-.3-.11c-.59.79-1.14 1.61-1.62 2.47m3.06 25.84c.67.73 1.39 1.41 2.16 2.03l.27-.18-2.26-2.13-.16.28Zm-4.65-22.34.27.19 1.23-2.86-.32-.06c-.45.87-.84 1.78-1.17 2.72Zm2.29 19.31q.81 1.245 1.77 2.37l.3-.13-1.86-2.49zm-3.24-15.58.29.14.71-3.02h-.33c-.29.94-.52 1.9-.68 2.88Zm1.44 12.19c.39.92.83 1.8 1.33 2.64l.32-.08-1.4-2.77zm-1.25-11.37-.32.06c-.12.97-.18 1.96-.17 2.95l.31.09zm.35 7.55-.28.16c.22.98.5 1.93.85 2.84l.32-.02-.9-2.97Zm-.5-3.76-.3.11a18 18 0 0 0 .35 2.94l.32.03-.37-3.09Z"/><path d="m516.81 286.03.31-.11c.02.3.03.59.03.89l-.32-.09-.18 3.1.33-.05c-.03.29-.08.59-.13.88l-.3-.15-.71 3.02h.33l-.28.85-.27-.2-1.23 2.86.32.06c-.13.26-.27.53-.42.78l-.22-.24-1.71 2.6.31.11-.55.7-.18-.27-2.13 2.27.28.16-.66.59-.13-.3-2.49 1.86.25.21-.76.47-.08-.32-2.77 1.4.21.25c-.27.12-.55.23-.83.33l-.02-.33-2.97.9.16.28-.87.18.03-.32-3.09.36.11.3c-.29.02-.59.03-.88.03l.09-.31-3.1-.18.06.32a9 9 0 0 1-.88-.13l.14-.29-3.02-.71v.32l-.84-.28.19-.27-2.85-1.22-.06.32c-.26-.13-.52-.27-.77-.42l.23-.22-2.6-1.71-.11.3a13 13 0 0 1-.69-.55l.27-.18-2.26-2.13-.16.28c-.2-.21-.4-.43-.59-.66l.3-.13-1.86-2.49-.21.25-.47-.75.32-.08-1.4-2.77-.25.21c-.11-.27-.23-.55-.33-.83l.32-.02-.9-2.97-.28.16c-.07-.28-.12-.57-.18-.86l.32.03-.37-3.09-.3.11c-.02-.29-.03-.59-.03-.88l.31.09.18-3.1-.32.06c.03-.29.07-.59.12-.88l.29.14.71-3.02h-.33l.28-.84.27.19 1.23-2.86-.32-.06.42-.78.22.24 1.7-2.6-.3-.11.55-.7.18.27 2.13-2.26-.28-.16c.21-.21.43-.4.66-.59l.13.3 2.49-1.86-.25-.21.76-.47.08.32 2.77-1.4-.21-.26c.27-.12.55-.23.83-.33l.02.33 2.98-.9-.16-.28.87-.18-.04.32 3.09-.37-.11-.31c.3-.02.59-.03.89-.03l-.09.31 3.1.18-.05-.32c.29.03.59.07.88.13l-.15.3 3.02.71v-.33l.85.28-.2.27 2.86 1.23.06-.33.78.42-.24.23 2.6 1.7.12-.31.7.55-.28.19 2.27 2.13.17-.28c.2.21.4.43.59.66l-.3.13 1.86 2.49.21-.25.47.76-.32.08 1.4 2.77.26-.21c.12.27.23.55.33.83l-.33.02.9 2.98.29-.16c.06.29.13.58.17.87l-.32-.04.37 3.09Z"/><path d="m494.08 265.31-3.08.37.04-.33.11-1 2.48-.3.34.96zm-3.75.5-2.98.9-.02-.33-.07-1 2.41-.72.49.87zm-3.62 1.16-2.77 1.39-.08-.32-.24-.97 2.24-1.13.64.77zm-3.35 1.75-2.5 1.86-.13-.3-.4-.92 2.01-1.5.77.65zm-3 2.32-2.13 2.26-.18-.27-.56-.84 1.71-1.82.87.51zm-2.56 2.8-1.7 2.6-.23-.24-.7-.72 1.38-2.1.95.35zm-2.03 3.2-1.22 2.86-.27-.2-.81-.59.99-2.3.99.17zm-1.44 3.51-.71 3.02-.29-.14-.91-.45.58-2.44 1 .01zm-.81 3.7-.18 3.1-.31-.09-.97-.28.15-2.5.99-.17zm-.15 3.79.36 3.09-.32-.04-1.01-.11-.29-2.49.95-.34zm1.39 6.73-.32.02-1.01.07-.72-2.4.88-.51.28-.15zm1.66 3.41-.32.08-.98.24-1.13-2.24.78-.64.25-.21zm2.22 3.07-.3.14-.93.41-1.49-2.01.65-.78.21-.25zm2.71 2.65-.26.18-.85.56-1.82-1.72.51-.87.16-.28zm3.14 2.13-.23.22-.73.7-2.1-1.37.35-.96.12-.3zm3.46 1.54-.19.27-.6.81-2.3-.99.18-.99.05-.32zm3.67.93-.14.3-.44.9-2.44-.57v-1.34zm3.79.28-.09.31-.29.97-2.5-.14-.17-1-.06-.32zm3.77-.39-.03.32-.12 1.01-2.48.3-.35-.96-.11-.3zm3.64-1.03.03.32.06 1.01-2.4.72-.5-.88-.16-.28zm3.74-.35-2.24 1.12-.65-.77-.21-.26 2.77-1.39.09.32zm3.29-2.3-2.01 1.5-.77-.65-.25-.22 2.49-1.85.13.3zm2.84-2.83-1.72 1.82-.87-.51-.28-.16 2.13-2.26.18.27zm2.31-3.28-1.37 2.09-.95-.35-.31-.11 1.71-2.6.22.24zm1.71-3.64-.99 2.31-.99-.19-.33-.06 1.23-2.85.27.2zm1.04-3.87-.57 2.44-1.01-.01h-.32l.71-3.02.3.14zm.36-4-.14 2.5-.99.17-.33.06.18-3.1.32.09zm-.33-4 .29 2.49-.95.34-.31.11-.36-3.09.32.04zm-.31-1.48-.87.5-.3.16-.89-2.97.33-.02 1-.07zm-1.29-3.8-.77.64-.25.21-1.4-2.77.32-.08.98-.24zm-1.92-3.53-.65.77-.21.25-1.86-2.49.3-.13.92-.4zm-2.51-3.13-.5.87-.17.28-2.26-2.12.28-.19.83-.56zm-3.01-2.66-.34.95-.12.31-2.6-1.7.24-.23.73-.7zm-3.42-2.09-.18.99-.06.33-2.86-1.23.2-.26.6-.81zm-3.74-1.46v1l-.01.34-3.02-.71.14-.3.45-.9zm-3.71.53-3.1-.18.09-.31.28-.97 2.51.14.17.99z"/></g><path fill="#37474f" d="M505.63 285.79a10.62 10.62 0 1 1-21.08 2.5 10.62 10.62 0 0 1 21.08-2.5"/><path fill="#dbdbdb" d="M504.21 285.96a9.19 9.19 0 1 1-18.25 2.16 9.19 9.19 0 0 1 18.25-2.16"/><path fill="#263238" d="M499.13 286.56a4.08 4.08 0 0 1-8.08.96 4.08 4.08 0 0 1 8.08-.96"/><path fill="#263238" d="M495.71 292.29a5.3 5.3 0 1 1-1.23-10.53 5.3 5.3 0 0 1 1.23 10.53m-1.19-10.05a4.83 4.83 0 1 0 1.14 9.58 4.83 4.83 0 0 0-1.14-9.58m.58-2.48c.06.47-.28.9-.75.96s-.9-.28-.96-.75.28-.9.75-.96.9.28.96.75m-3.64.97a.86.86 0 1 1-1.39 1.03.86.86 0 0 1 1.39-1.03m-2.67 2.66a.86.86 0 1 1-.68 1.58.85.85 0 0 1-.45-1.13.85.85 0 0 1 1.13-.45m-.98 3.64c.47-.06.9.28.96.75s-.28.9-.75.96a.86.86 0 0 1-.96-.75.86.86 0 0 1 .75-.96m.97 3.64a.87.87 0 0 1 1.21.17.86.86 0 1 1-1.21-.18Zm2.66 2.66a.85.85 0 0 1 1.13-.45c.44.19.64.7.45 1.13a.85.85 0 0 1-1.13.45.85.85 0 0 1-.45-1.13m3.64.98c-.06-.47.28-.9.75-.96s.9.28.96.75-.28.9-.75.96a.86.86 0 0 1-.96-.75m3.64-.97a.87.87 0 0 1 .17-1.21.86.86 0 1 1 1.03 1.39.87.87 0 0 1-1.21-.17Zm2.66-2.66a.85.85 0 0 1-.45-1.13.85.85 0 0 1 1.13-.45c.44.19.64.69.45 1.13a.85.85 0 0 1-1.13.45m.98-3.64a.86.86 0 0 1-.96-.75.86.86 0 0 1 .75-.96c.47-.06.9.28.96.75s-.28.9-.75.96m-.97-3.64a.86.86 0 1 1 .17-1.2c.28.38.21.92-.17 1.21Zm-2.66-2.66a.85.85 0 0 1-1.13.45.86.86 0 0 1-.45-1.13.85.85 0 0 1 1.13-.45c.44.19.64.69.45 1.13"/><path fill="#c7c7c7" d="M436.93 282.2h-6.47v-6.56h6.47zm-6.47 2.36h-1.99v-11.29h1.99z"/><path fill="#faa12f" d="M428.48 283.2h-1.84v-8.56h1.84z"/><path fill="#c7c7c7" d="M588.45 235.49h12.7v35.39h-12.7z"/><path fill="#c7c7c7" d="m567.03 215.98 8.98-8.98 25.03 25.03-8.98 8.98z"/><circle cx="594.81" cy="235.49" r="10.77" fill="#a6a6a6"/><path fill="#c7c7c7" d="M601.19 235.49a6.38 6.38 0 1 1-12.77 0 6.38 6.38 0 0 1 12.77 0"/><path fill="#a6a6a6" d="M603.45 233.29h10.12a3.78 3.78 0 0 1 3.78 3.78v.63h-13.9v-4.4Z"/><path fill="#dbdbdb" d="M704.77 247.96h-7.15v-11.39h7.15z"/><path fill="#faa12f" d="m405.65 200.65 191.21-75.17 11.08 88.29-138.83 54.58-59.59-34.62z"/><path d="m415.12 204.75 174.04-68.41 9.79 73.14-126.82 49.85-53.7-29.82z" opacity=".1"/><path fill="#faa12f" d="m614.21 98.6-63.94 25.13.76 19.77 63.94-25.14zM427.83 199.76l5.04 37.77-1.27-.7-4.43-2.46-4.35-32.64z"/><path d="m427.97 199.7 5.05 37.92-.15-.09-1.27-.7-4.88-36.63z" opacity=".2"/><path fill="#faa12f" d="m450.29 190.93 8.11 60.78-1.27-.71-4.43-2.45-7.42-55.65z"/><path d="m450.43 190.87 8.13 60.93-.16-.09-1.27-.71-7.96-59.63z" opacity=".2"/><path fill="#faa12f" d="m472.76 182.1 9.75 73.14-5.01 1.98-9.76-73.15z"/><path d="m472.89 182.05 9.76 73.14-1.25.49-9.76-73.14z" opacity=".2"/><path fill="#faa12f" d="m495.21 173.27 9.77 73.14-5.02 1.98-9.76-73.15z"/><path d="m495.35 173.22 9.76 73.14-1.25.49-9.77-73.14z" opacity=".2"/><path fill="#faa12f" d="m517.68 164.44 9.76 73.15-5.02 1.97-9.76-73.15z"/><path d="m517.81 164.39 9.76 73.14-1.25.5-9.76-73.15z" opacity=".2"/><path fill="#faa12f" d="m540.13 155.61 9.77 73.15-5.02 1.97-9.76-73.15z"/><path d="m540.27 155.56 9.76 73.14-1.25.5-9.77-73.15z" opacity=".2"/><path fill="#faa12f" d="m562.6 146.78 9.76 73.15-5.02 1.97-9.76-73.14z"/><path d="m562.73 146.73 9.76 73.15-1.25.49-9.76-73.15z" opacity=".2"/><path fill="#faa12f" d="m585.06 137.95 9.75 73.15-5.01 1.97-9.76-73.14z"/><path d="m585.19 137.9 9.76 73.15-1.25.49-9.76-73.14z" opacity=".2"/><path fill="#faa12f" d="M260.86 318.59s91.31 11.34 90.58 10.62-9.25-15.79-11.52-16.89-10.03-4.7-10.54-5.1c-.5-.4-16.39-15.16-18.38-16.15-2-.99-12.55-3.24-14.16-3.06-.92.11-6.28 4.9-7.19 5.28-.9.37-8.53.75-9.34 1.23-.91.55-8.65 6.47-8.97 6.63-.62.31-10.48 17.44-10.48 17.44"/><path d="M260.86 318.59s91.31 11.34 90.58 10.62-9.25-15.79-11.52-16.89-10.03-4.7-10.54-5.1c-.5-.4-16.39-15.16-18.38-16.15-2-.99-12.55-3.24-14.16-3.06-.92.11-6.28 4.9-7.19 5.28-.9.37-8.53.75-9.34 1.23-.91.55-8.65 6.47-8.97 6.63-.62.31-10.48 17.44-10.48 17.44" opacity=".4"/><path d="M291.5 311.64c-2.37-.25-4.57-1.18-6.71-2.03.02.01.32.03.43-.03.25-.12.13-.08.11-.06a19.1 19.1 0 0 1-5.73 1.88 18.7 18.7 0 0 1 4.73-3.59c.04-.01-.02-.02.3-.12.25-.08.59-.04.77.03 2.34.86 4.35 2.14 6.1 3.92m34.3 2.21c-3.09-1.36-5.98-3.53-8.82-5.16.08.02.27.03.42-.02a47 47 0 0 1-10.86 1.07 62 62 0 0 1 10.63-3.03c.42.02.69.18 1 .34a31.1 31.1 0 0 1 7.63 6.8m-45.33-13.25c1.89-1.71 10.68-8.66 12.96-7.28a111 111 0 0 1 6.71 5.23l-.58-.16c1.48-.09 2.85-.18 4.35-.02.4.03.84.3 1.14.54.86.66 1.61 1.43 2.33 2.24-1.1-.55-2.35-1.63-3.55-1.77-1.4.09-2.94.41-4.35.65-2.36-1.58-4.86-3.4-7.17-5.08.32.18.32.09.3.11-1.55.37-3.01 1.22-4.48 1.91-2.46 1.21-5.13 2.55-7.66 3.62Z" opacity=".1"/><path fill="#37474f" d="M354.83 288.37h13.32v26.37h-13.32zm13.32 18.18 10.37 12.22v13.79l-10.37 6.19z"/><path fill="#37474f" d="m368.15 338.75-24.01 15.24-26.16 3.07s-40.79-16.39-63.66-47.18l24.13 6.01s9.11 6.63 27.7 2.38 33.39-20.2 33.39-20.2h15.29l13.32 8.48z"/><path fill="#455a64" d="M278.58 334.34v-20.1l-26.5-5.61s7.14 14.19 26.5 25.71"/><path d="m368.15 338.74-24 15.24-26.16 3.07s-16.52-6.64-34.43-19.41c20.62 14.15 38.39 17.55 54.12 10.02 9.64-4.62 6.9-21.85 17.69-22.89 10.78-1.02 12.79 13.97 12.79 13.97Zm-77.03-12.18c12.51.3 24.82-4.02 35.18-10.83 4.76-3.19 9.04-7.08 13.07-11.14h.18l7.65.18c2.55.09 5.1.15 7.65.28-4.39.2-10.82.37-15.29.45-10.27 12.78-30.4 23.22-48.43 21.05Z" opacity=".1"/><path fill="#faa12f" d="m296.7 137.88 8.85-4.9 2.32 4.2-8.84 4.9z"/><path fill="#faa12f" d="m300.22 141.42 6.45-3.57 32.88 59.4-6.45 3.56z"/><path d="m307.41 139.17-5.78 4.77-1.41-2.54 6.44-3.57z" opacity=".1"/><path fill="#c7c7c7" d="m334 200.31 4.66-2.58 43.93 79.35-4.67 2.59z"/><path fill="#faa12f" d="m198.8 192.91-7.81-6.4 1.96-2.4 7.82 6.4z"/><path fill="#faa12f" d="m199.7 189.66-5.69-4.67 27.82-33.92 5.7 4.67z"/><path d="m194.65 184.21 6.26 3.99-1.19 1.45-5.7-4.67z" opacity=".1"/><path fill="#c7c7c7" d="m226.75 155.1-4.13-3.4 37.17-45.31 4.13 3.39z"/><path fill="#faa12f" d="M376.93 286.54h8.18v33.88h-8.18z"/><path d="M385.11 286.53v3.69l-8.18-1.27v-2.42zm-8.18 33.89v-3.68l8.18 1.27v2.41z" opacity=".1"/><path fill="#faa12f" d="m346.26 268.78 3.62-7.34 30.4 14.97-3.62 7.34z"/><path d="m363.41 277.2-17.15-8.45 3.61-7.32 9.56 4.7h.01zm16.86-.81-3.62 7.33-3.02-1.48.79-8.73z" opacity=".1"/><path fill="#faa12f" d="M380.14 288.75a6.51 6.51 0 1 1 1.76-12.9 6.51 6.51 0 0 1-1.76 12.9"/><path fill="#263238" d="M380.58 285.51a3.23 3.23 0 1 1 .87-6.41 3.23 3.23 0 0 1-.87 6.41"/><path fill="#faa12f" d="M380.14 331.23a6.51 6.51 0 1 1 1.76-12.9 6.51 6.51 0 0 1-1.76 12.9"/><path fill="#263238" d="M380.58 327.99a3.23 3.23 0 1 1 .87-6.41 3.23 3.23 0 0 1-.87 6.41"/><path fill="#faa12f" d="m273.42 98.61 29.93 27.84a6.52 6.52 0 0 1-8.26 9.95l-35.97-21.88z"/><path d="m295.79 134.81-2.09-1.29-31.33-19.39 11-12.87 22.03 18.99 2.08 6.97-.53.23a3.91 3.91 0 0 0-2.28 2.51c-.52 1.81-.08 2.66-.07 2.67l1.19 2.16Zm-31.45-20.98 28.78 17.81c0-.54.07-1.21.31-2.02a5.1 5.1 0 0 1 2.49-3.09l-1.65-5.53-20.76-17.9z" opacity=".1"/><path fill="#263238" d="M298.84 134.31a3.23 3.23 0 1 1 .87-6.41 3.23 3.23 0 0 1-.87 6.41"/><path d="m294.14 135.83-35.02-21.32 14.31-15.91 9.52 8.86z" opacity=".1"/><path fill="#faa12f" d="M356.79 300.37 256.74 139.66l2.28-31.04a9.15 9.15 0 0 1 16.45-7.65l94.54 192.5z"/><path d="m357.99 295.76-.31-.5-97.86-156.88 2.34-29.23.95.77c1.32 1.07 3.56 1.99 5.57 1.66a4.87 4.87 0 0 0 3.38-2.38 6.3 6.3 0 0 0 .63-5.3l1.19-.52 91.04 188.96-6.92 3.43Zm-96.85-157.71 97.32 156.02 4.72-2.34-88.97-184.66a7.5 7.5 0 0 1-1.06 2.82 6.11 6.11 0 0 1-4.26 2.96 8.58 8.58 0 0 1-5.63-1.26z" opacity=".1"/><path fill="#263238" d="M269.59 103.35a3.23 3.23 0 1 1-3.53 5.42 3.23 3.23 0 0 1 3.53-5.42"/><path d="m256.75 139.66 2.28-31.05a9.14 9.14 0 0 1 2.15-9.09l53.99 133.97-58.42-93.84Z" opacity=".1"/><path fill="#faa12f" d="m180.04 215.52 75.26-91.35a9.15 9.15 0 0 1 15.4 9.6l-59.43 130.87-31.22-49.13Z"/><path d="m211.16 257.18-27.48-41.33 64.73-79.27 8.98-4.06.3.5a4.96 4.96 0 0 0 4.24 2.39c2.77 0 4.44-1.59 4.46-1.6l2.49-2.41-1.44 3.15-56.27 122.64Zm-25.87-41.26 25.66 38.6 54.39-118.54a8.3 8.3 0 0 1-3.41.72 6.27 6.27 0 0 1-5.03-2.54l-7.67 3.47z" opacity=".1"/><circle cx="262.24" cy="130.13" r="3.23" fill="#263238"/><path fill="#263238" d="m185.13 225.3-1.29-.07c.04-.77 1.07-18.86 4.1-26.19 2.03-4.91 10.12-6.66 17.25-8.2 3.96-.85 7.69-1.66 9.51-2.87 1.63-1.08 6.24-6.58 11.58-12.94 11.71-13.95 27.74-33.04 36.85-36.28 12.63-4.48 35.83 12.04 44.57 18.25l1.73 1.22c5.83 4.04 8.86 10.72 8.98 11l-1.18.53c-.03-.07-3.01-6.63-8.54-10.46l-1.74-1.23c-7.76-5.53-31.39-22.35-43.38-18.09-8.78 3.11-25.34 22.84-36.29 35.89-5.85 6.96-10.07 12-11.86 13.18-2.02 1.34-5.7 2.14-9.95 3.05-6.82 1.48-14.56 3.15-16.33 7.43-2.94 7.12-3.99 25.58-4 25.77Z"/><path fill="#faa12f" d="m315.95 170.55 4.33-2.4 12.95 23.4-4.33 2.4z"/><path d="m315.95 170.55 4.33-2.4 12.95 23.4-4.33 2.4z" opacity=".1"/><path d="M340.4 425.54h-68.49v-68.49h4.77l1.66 8.2a69.4 69.4 0 0 0 55.59 54.52l6.47 1.18v4.6Zm-85.2-41.17 16.7 12.25v13.84l-16.7-12.26z" fill="#263238"/><rect width="207.89" height="61.02" x="57.37" y="362" fill="#263238" rx="30.51" ry="30.51"/><path fill="#263238" d="M234.34 425.54h-7.99v-3.89h7.99zm-15.84 0h-7.85v-3.89h7.85zm-15.71 0h-7.85v-3.89h7.85zm-15.71 0h-7.85v-3.89h7.85zm-15.71 0h-7.85v-3.89h7.85zm-15.71 0h-7.85v-3.89h7.85zm-15.71 0h-7.85v-3.89h7.85zm-15.71 0h-7.85v-3.89h7.85zm-15.71 0h-7.85v-3.89h7.85zm-15.71 0h-4.44a44 44 0 0 1-3.64-.29l.48-3.86c1.05.13 2.14.22 3.24.26h4.36zm149.74-1.08-.98-3.76a28.8 28.8 0 0 0 6.8-2.74l1.9 3.39a32.7 32.7 0 0 1-7.72 3.11m-165.86-1.1a32.6 32.6 0 0 1-7.42-3.78l2.2-3.21a28.5 28.5 0 0 0 6.53 3.32l-1.31 3.66Zm180.27-6.96-2.68-2.81a29.2 29.2 0 0 0 4.64-5.7l3.3 2.06a33.2 33.2 0 0 1-5.25 6.45ZM63.1 413.96a32 32 0 0 1-4.46-7.05l3.53-1.64a28 28 0 0 0 3.91 6.19zm202.6-11.57-3.71-1.17a29 29 0 0 0 1.29-7.22l3.89.2a33.4 33.4 0 0 1-1.46 8.19ZM56.11 399a35.4 35.4 0 0 1-.57-8.27l3.89.19a31.2 31.2 0 0 0 .5 7.36zm206.62-12.32a29 29 0 0 0-2.36-6.95l3.5-1.71a33 33 0 0 1 2.67 7.88l-3.81.77Zm-202.06-3.02-3.73-1.11c.8-2.7 1.94-5.26 3.36-7.61l3.33 2.01a29 29 0 0 0-2.96 6.71m195.68-10.06a29.4 29.4 0 0 0-5.43-4.95l2.24-3.18a33.4 33.4 0 0 1 6.15 5.61zm-188.14-2.34-2.67-2.83a31.2 31.2 0 0 1 6.78-4.86l1.83 3.43a27.4 27.4 0 0 0-5.94 4.26m176.23-6.04c-2.3-.86-4.7-1.43-7.14-1.7l.41-3.87c2.77.3 5.49.94 8.1 1.92l-1.37 3.64Zm-163.42-.83-.94-3.77a41 41 0 0 1 8.15-1.15l.16 3.89c-2.57.11-5.05.46-7.37 1.03m148.64-1.04h-7.85v-3.89h7.85zm-15.71 0h-7.85v-3.89h7.85zm-15.71 0h-7.85v-3.89h7.85zm-15.71 0h-7.85v-3.89h7.85zm-15.71 0h-7.85v-3.89h7.85zm-15.71 0h-7.85v-3.89h7.85zm-15.71 0h-7.85v-3.89h7.85zm-15.71 0h-7.85v-3.89h7.85zm-15.71 0h-7.85v-3.89h7.85z"/><path fill="#455a64" d="M234.2 367.93H88.43a24.58 24.58 0 0 0 0 49.16H234.2a24.58 24.58 0 0 0 0-49.16"/><circle cx="87.55" cy="392.51" r="15.96" fill="#263238"/><circle cx="87.55" cy="392.51" r="11.75" fill="#455a64"/><circle cx="87.55" cy="392.51" r="10.92" fill="#263238"/><path fill="#455a64" d="M93.09 392.51a5.53 5.53 0 1 1-11.06 0 5.53 5.53 0 0 1 11.06 0"/><path fill="#263238" d="M111.62 377.53a4.06 4.06 0 1 1-8.13 0 4.06 4.06 0 0 1 8.13 0"/><path fill="#455a64" d="M110.55 377.53a3 3 0 1 1-5.98 0 3 3 0 0 1 5.98 0"/><circle cx="107.57" cy="377.53" r="2.78" fill="#263238"/><path fill="#455a64" d="M108.97 377.53a1.4 1.4 0 1 1-2.82 0 1.4 1.4 0 0 1 2.82 0"/><path fill="#263238" d="M165.37 377.53a4.06 4.06 0 1 1-8.13 0 4.06 4.06 0 0 1 8.13 0"/><path fill="#455a64" d="M164.3 377.53a3 3 0 1 1-5.98 0 3 3 0 0 1 5.98 0"/><circle cx="161.31" cy="377.53" r="2.78" fill="#263238"/><path fill="#455a64" d="M162.72 377.53a1.4 1.4 0 1 1-2.82 0 1.4 1.4 0 0 1 2.82 0"/><path fill="#263238" d="M143.37 377.53a4.06 4.06 0 1 1-8.13 0 4.06 4.06 0 0 1 8.13 0"/><path fill="#455a64" d="M142.3 377.53a3 3 0 1 1-5.98 0 3 3 0 0 1 5.98 0"/><circle cx="139.31" cy="377.53" r="2.78" fill="#263238"/><path fill="#455a64" d="M140.72 377.53a1.4 1.4 0 1 1-2.82 0 1.4 1.4 0 0 1 2.82 0"/><path fill="#263238" d="M187.37 377.53a4.06 4.06 0 1 1-8.13 0 4.06 4.06 0 0 1 8.13 0"/><path fill="#455a64" d="M186.3 377.53a3 3 0 1 1-5.98 0 3 3 0 0 1 5.98 0"/><circle cx="183.31" cy="377.53" r="2.78" fill="#263238"/><path fill="#455a64" d="M184.72 377.53a1.4 1.4 0 1 1-2.82 0 1.4 1.4 0 0 1 2.82 0"/><path fill="#263238" d="M219.12 377.53a4.06 4.06 0 1 1-8.13 0 4.06 4.06 0 0 1 8.13 0"/><path fill="#455a64" d="M218.05 377.53a3 3 0 1 1-5.98 0 3 3 0 0 1 5.98 0"/><circle cx="215.06" cy="377.53" r="2.78" fill="#263238"/><path fill="#455a64" d="M216.47 377.53a1.4 1.4 0 1 1-2.82 0 1.4 1.4 0 0 1 2.82 0"/><path fill="#263238" d="M111.62 407.48a4.06 4.06 0 1 1-8.13 0 4.06 4.06 0 0 1 8.13 0"/><path fill="#455a64" d="M110.55 407.48a3 3 0 1 1-5.98 0 3 3 0 0 1 5.98 0"/><circle cx="107.57" cy="407.48" r="2.78" fill="#263238"/><path fill="#455a64" d="M108.97 407.48a1.4 1.4 0 1 1-2.82 0 1.4 1.4 0 0 1 2.82 0"/><path fill="#263238" d="M165.37 407.48a4.06 4.06 0 1 1-8.13 0 4.06 4.06 0 0 1 8.13 0"/><path fill="#455a64" d="M164.3 407.48a3 3 0 1 1-5.98 0 3 3 0 0 1 5.98 0"/><circle cx="161.31" cy="407.48" r="2.78" fill="#263238"/><path fill="#455a64" d="M162.72 407.48a1.4 1.4 0 1 1-2.82 0 1.4 1.4 0 0 1 2.82 0"/><path fill="#263238" d="M143.37 407.48a4.06 4.06 0 1 1-8.13 0 4.06 4.06 0 0 1 8.13 0"/><path fill="#455a64" d="M142.3 407.48a3 3 0 1 1-5.98 0 3 3 0 0 1 5.98 0"/><circle cx="139.31" cy="407.48" r="2.78" fill="#263238"/><path fill="#455a64" d="M140.72 407.48a1.4 1.4 0 1 1-2.82 0 1.4 1.4 0 0 1 2.82 0"/><path fill="#263238" d="M187.37 407.48a4.06 4.06 0 1 1-8.13 0 4.06 4.06 0 0 1 8.13 0"/><path fill="#455a64" d="M186.3 407.48a3 3 0 1 1-5.98 0 3 3 0 0 1 5.98 0"/><circle cx="183.31" cy="407.48" r="2.78" fill="#263238"/><path fill="#455a64" d="M184.72 407.48a1.4 1.4 0 1 1-2.82 0 1.4 1.4 0 0 1 2.82 0"/><path fill="#263238" d="M219.12 407.48a4.06 4.06 0 1 1-8.13 0 4.06 4.06 0 0 1 8.13 0"/><path fill="#455a64" d="M218.05 407.48a3 3 0 1 1-5.98 0 3 3 0 0 1 5.98 0"/><circle cx="215.06" cy="407.48" r="2.78" fill="#263238"/><path fill="#455a64" d="M216.47 407.48a1.4 1.4 0 1 1-2.82 0 1.4 1.4 0 0 1 2.82 0"/><circle cx="235.07" cy="392.51" r="15.96" fill="#263238"/><circle cx="235.07" cy="392.51" r="11.75" fill="#455a64"/><circle cx="235.07" cy="392.51" r="10.92" fill="#263238"/><path fill="#455a64" d="M240.61 392.51a5.53 5.53 0 1 1-11.06 0 5.53 5.53 0 0 1 11.06 0"/><path fill="#263238" d="M103.51 383.16h115.61v18.69H103.51z"/><path d="M108.23 383.16h.75v18.69h-.75zm105.42 0h.75v18.69h-.75z" fill="#455a64"/><path fill="#263238" d="M127.16 350.96h76.42v11.9h-76.42zm106.03-9.55H113.88V216.83a4.58 4.58 0 0 1 4.58-4.58h56.71a31.73 31.73 0 0 1 29.36 19.71l26.29 64.21a31.8 31.8 0 0 1 2.37 12.02v33.21Z"/><path fill="#37474f" d="m223.01 315.89-99.91-31.04v-58.93a3.69 3.69 0 0 1 3.69-3.69h45.64c10.37 0 19.7 6.27 23.63 15.86l25.05 62.06a25.5 25.5 0 0 1 1.9 9.68v6.07Z"/><path d="m161.77 222.22-38.67 38.66v-18.74l19.92-19.92zm61.23 87.6v6.06l-9.7-3.01 9-9c.47 1.95.7 3.94.7 5.95m-46.06-87.18-53.84 53.84v-1.57l52.48-52.49c.45.05.91.13 1.36.22m18.31 13.69-54.12 54.12-1.21-.38 54.78-54.78c.19.34.38.69.54 1.04Zm18.71 46.11-23.38 23.38-1.2-.38 24.13-24.13zm-13.94-34.53-46.41 46.42-8.43-2.62 51.67-51.67z" fill="#455a64"/><path fill="#263238" d="m223.01 284.08-99.92-14.97v9.98l99.92 14.97z"/><path fill="#263238" d="M146.19 324.45V222.23h9.98v102.22zm-23.1-45.36h23.09v28.53h-23.09z"/><path fill="#faa12f" d="M112.96 279.09H84.59a6.8 6.8 0 0 0-6.8 6.8v58.46l3.89 6.61h38.07v-65.07a6.8 6.8 0 0 0-6.8-6.8Z"/><path d="M83.28 284.86h31v2.15h-31zm0 5.03h31v2.15h-31zm0 5.03h31v2.15h-31zm0 5.03h31v2.15h-31zm0 5.03h31v2.15h-31zm-5.48 39.37 3.89 6.61h38.07v-6.61z" opacity=".1"/><path fill="#faa12f" d="m119.76 300.37 113.43 35.79v8.19l-3.89 6.61H119.76z"/><path d="m229.3 350.96 3.89-6.61H119.76v6.61zm-73.62-34.42c.89 8.28.9 16.58 0 24.87-.9-8.28-.89-16.58 0-24.87m-35.92-12.67a267 267 0 0 1 0 37.53 267 267 0 0 1 0-37.53m28.09 14.17c.09 2.25.21 4.65.27 7.05-4.79.15-11.58.2-16.43.23h-.49v-.49l.06-6.79v-.44h.44c5.38.03 10.86.24 16.16.44Zm0 0c-4.72.16-11.53.43-16.16.44l.44-.44.05 6.79-.49-.49c4.77.02 11.46.08 16.16.22l-.27.27c.07-2.2.18-4.43.27-6.79" opacity=".1"/><path d="M131.7 320.79v-2.76h16.16v2.76z" opacity=".1"/><path fill="#d3766a" d="m627.65 424.95 2.12 29.37c.03 5.75-.05 10.79-.33 13.39v.04c-.11.98-.24 1.61-.42 1.78l-.03.04c-1.7 1.17-47.63 2.74-49.25 2.26-1.63-.48-.37-5.14 1.37-6.62 1.75-1.48 19.05-9.95 19.05-9.95l-1.83-29.33 29.33-.96Z"/><path fill="#fff" d="M629.77 448.15v6.17c.03 5.75-.05 10.79-.33 13.39v.04a7.4 7.4 0 0 1-.42 1.78l-.03.04c-1.7 1.17-47.63 2.74-49.25 2.26-1.63-.48-.37-5.14 1.37-6.62 1.75-1.48 19.05-9.95 19.05-9.95l-.08-6.26 29.7-.84Z"/><path fill="#faa12f" d="M579.73 471.82c1.62.49 47.54-1.09 49.25-2.26.66-.43.82-7.14.78-15.24v-.25l-29.64.68.03.5s-17.31 8.46-19.05 9.95c-1.73 1.48-2.99 6.14-1.37 6.62"/><path d="M580.19 470.03c7.73-.45 38.97-1.56 46.65-1.42.06 0 .06.04 0 .05-7.66.62-38.9 1.47-46.65 1.5-.16 0-.17-.12 0-.13m17.48-14.6c3.03-.67 6.77-.33 9.17 1.76.09.08-.02.21-.12.18a43 43 0 0 0-9.02-1.56c-.22-.01-.24-.34-.03-.38m-2.16 1.4c3.03-.67 6.77-.33 9.17 1.76.09.08-.02.21-.12.18a43 43 0 0 0-9.02-1.56c-.22-.01-.24-.34-.03-.38m-2.15 1.4c3.03-.67 6.77-.33 9.17 1.76.09.08-.02.21-.12.18a43 43 0 0 0-9.02-1.56c-.22-.01-.24-.34-.03-.38" fill="#263238"/><path fill="#263238" d="m631.53 455.59-32.15-.64s-3.92-57.84-3.19-77.13c.79-20.95 9.79-83.28 9.79-83.28h27.15s-6.94 62.57-7.09 83.53c-.14 19.43 5.48 77.52 5.48 77.52Z"/><path fill="#37474f" d="m611.32 294.54 16.31 56.42c1.93-26.7 5.51-56.42 5.51-56.42h-21.81Z"/><path fill="#37474f" d="m627.99 297.61-1.72 18.61-1.6 18.62a1655 1655 0 0 0-2.73 37.28 133 133 0 0 0-.25 9.36c.07 3.12.19 6.23.35 9.35.32 6.22.72 12.44 1.2 18.65.47 6.21.97 12.42 1.51 18.63l1.73 18.61-1.39-18.63c-.46-6.21-.9-12.42-1.31-18.64-.39-6.21-.81-12.43-1.1-18.65-.15-3.11-.26-6.22-.32-9.33-.03-3.1.09-6.2.28-9.31.68-12.43 1.66-24.85 2.57-37.27l2.78-37.27Zm-27.26 151.97c5.02-.04 3.58-.1 8.6-.09 2.46 0 18.6.06 20.89.47.05 0 .05.09 0 .1-2.3.35-18.44.02-20.89-.04-5.02-.11-3.58-.13-8.59-.3-.09 0-.09-.15 0-.15Z"/><path fill="#d3766a" d="m679.9 409.21 15.52 25.22c2.52 5.17 4.63 9.74 5.51 12.21l.01.04c.33.93.48 1.55.4 1.78l-.01.05c-1.03 1.79-41.73 23.12-43.4 23.39-1.67.28-2.56-4.47-1.64-6.56.93-2.09 12.86-17.23 12.86-17.23l-15.24-25.32 26.01-13.59Z"/><path fill="#fff" d="M701.34 448.47v.04c-1.03 1.79-41.73 23.12-43.4 23.39s-2.56-4.47-1.64-6.56c.94-2.1 12.86-17.23 12.86-17.23l-2.72-4.52c6.65-3.55 18.74-9.77 26.25-13.63l2.75 4.47c2.52 5.17 4.64 9.74 5.51 12.2l.01.04c.33.93.48 1.55.39 1.78Z"/><path fill="#faa12f" d="M657.92 471.9c1.67-.27 42.37-21.59 43.4-23.39.4-.68-2.36-6.79-5.91-14.08l-.11-.23-26.41 13.47.24.44s-11.93 15.13-12.85 17.23c-.92 2.08-.03 6.83 1.64 6.56"/><path d="M657.56 470.08c6.77-3.76 34.44-18.31 41.42-21.51.06-.03.08.01.02.04-6.63 3.88-34.42 18.19-41.39 21.58-.15.07-.2-.03-.06-.11Zm9.42-20.73c2.44-1.92 5.95-3.23 9.03-2.39.12.03.07.2-.03.22a43 43 0 0 0-8.8 2.51c-.21.08-.36-.2-.19-.34Zm-1.34 2.2c2.44-1.92 5.95-3.23 9.03-2.39.12.03.07.2-.03.22a43 43 0 0 0-8.8 2.51c-.21.08-.36-.2-.19-.34Zm-1.33 2.19c2.44-1.92 5.95-3.23 9.03-2.39.12.03.07.2-.03.22a43 43 0 0 0-8.8 2.51c-.21.08-.36-.2-.19-.34Zm-55.54-159.23v.03c.12.56 2.02 9.37 3.99 16.93 1.43 5.53 2.9 10.38 3.75 10.89.96.57 5.62 2.63 7.18 3.28 0 0 10.48 52.34 16.02 68.57 5.11 14.98 26.24 55.01 26.24 55.01l30.66-15.49s-23.95-40.63-26.47-47.92c-3.9-11.3-18.53-66.48-18.53-66.48s.11-17.27-5.71-24.82h-37.15Z" fill="#263238"/><g fill="#37474f"><path d="M666.4 443.24c4.38-2.45 3.09-1.81 7.5-4.21 2.16-1.17 16.34-8.87 18.55-9.62.05-.02.09.06.05.09-1.85 1.41-16.16 8.87-18.34 10-4.45 2.31-3.2 1.6-7.68 3.86-.08.04-.15-.08-.07-.13Zm-22.64-128.72c-.84-.22-1.74-.28-2.59-.42-.69-.11-1.38-.23-2.07-.38a8.9 8.9 0 0 1-3.64-1.53c-1.19-.92-1.79-2.32-2.36-3.67-.34-.8-.69-1.59-1.05-2.39l-.52-1.15c-.21-.45-.49-.91-.65-1.38-.02-.07-.13-.03-.1.03.14.31.19.67.29.99l.35 1.16c.21.69.42 1.38.65 2.06.41 1.23.77 2.51 1.46 3.61 1.27 2.02 3.53 2.83 5.79 3.11.65.08 1.3.13 1.96.17.81.05 1.67.12 2.47.02.12-.02.16-.19.02-.23Zm-29.73 6.6a61 61 0 0 1 9.61 4.48c.12.07.04.25-.09.2-3.24-1.39-6.54-2.72-9.7-4.29-.25-.12-.08-.47.17-.39Zm-.98-22.17c0-.11.21-.14.2-.02-.03 3.84.22 7.23.54 10.82.15 1.67 1.49 10.88 4.38 10.21.48-.11.73-.59.81-1.32.09-.88-.24-1.95-.38-2.83a71 71 0 0 1-.74-5.81c-.31-3.64-.32-7.28.12-10.9.01-.12.19-.11.19.01 0 5.04.13 10.06.88 15.05.36 2.4 1.57 6.01-.94 6.37-2.55.38-4.21-5.67-4.52-7.32-.87-4.61-.9-9.6-.54-14.26"/><path d="M618.11 320.21c.26.62.47 1.26.65 1.91.14.5.33 1.05.27 1.57-.01.1-.15.11-.2.04-.34-.43-.48-1.02-.67-1.53l-.66-1.77c-.13-.4.45-.6.61-.22m70.23 108.43c-4.36-8.22-8.86-16.36-13.38-24.49-2.23-4.01-4.55-7.97-6.67-12.04-2.1-4.02-3.52-8.23-4.85-12.55a841 841 0 0 1-14.47-53.15c-.53-2.23-1.12-4.47-1.55-6.72-.45-2.34-.31-4.53.01-6.88.3-2.15.38-4.26.05-6.41a43.5 43.5 0 0 0-1.5-6.26c-.34-1.08-.71-2.15-1.08-3.22-.04-.12-.23-.07-.19.06 1.32 4.33 2.67 8.7 2.39 13.28-.14 2.2-.72 4.36-.68 6.58.04 2.21.62 4.37 1.11 6.5a798 798 0 0 0 6.72 26.85 822 822 0 0 0 7.59 26.61c1.3 4.29 2.52 8.65 4.36 12.75 1.85 4.11 4.19 7.98 6.4 11.9 4.56 8.1 9.15 16.19 13.84 24.21l1.79 3.04c.04.06.13 0 .1-.06Z"/></g><path fill="#faa12f" d="M528.3 379.47s-39.65-12.33-47.54-12.2-59.67 32.95-59.67 32.95z"/><path d="M528.3 379.47s-39.65-12.33-47.54-12.2-59.67 32.95-59.67 32.95z" opacity=".4"/><path fill="#263238" d="m501.15 437.47 12.4-6.6-5.12-42.8 7.93-11.69-2.12-1.43-8.47 12.47 5.03 42.02-9.63 5.12-29.12-16.12-8.03 4.27 1.2 2.25 6.8-3.61zm-88.25 6.24a24.36 24.36 0 1 0 48.43-5.23 24.36 24.36 0 0 0-48.43 5.23"/><path fill="#37474f" d="M424.34 442.48a12.85 12.85 0 1 0 25.56-2.76 12.85 12.85 0 0 0-25.56 2.76"/><path fill="#faa12f" d="M418.53 466.78 569.5 321.33l15.13-8.05-2.64-4.97-15.83 8.42-151.54 146z"/><path d="M418.53 466.78 569.5 321.33l15.13-8.05-2.64-4.97-15.83 8.42-151.54 146z" opacity=".6"/><path fill="#37474f" d="m592.33 309.64-18.01 9.58-3.1-5.84 18-9.57z"/><path fill="#263238" d="m508.99 443.13 12.41-6.6-5.13-42.81 7.93-11.68-2.11-1.44-8.47 12.48 5.03 42.01-9.63 5.12-29.13-16.11-8.02 4.26 1.2 2.26 6.8-3.61zm-83.84 6.88a24.36 24.36 0 1 0 48.43-5.23 24.36 24.36 0 0 0-48.43 5.23"/><path fill="#37474f" d="M436.59 448.78a12.85 12.85 0 1 0 25.56-2.76 12.85 12.85 0 0 0-25.56 2.76"/><path fill="#faa12f" d="m547.96 367.01-142.52 32.9-.98-4.2 142.52-32.9z"/><path fill="#faa12f" d="M544.13 367.87 536.5 396l-79.61 32.33L409.27 399z"/><path d="m409.27 399 3.92 2.42 128.58-24.82 2.36-8.73z" opacity=".1"/><path fill="#263238" d="m474.51 427.34-3.86-4.72 55.71-22.51z"/><path fill="#faa12f" d="m431.66 470.94 150.97-145.45 15.13-8.05-2.64-4.97-15.83 8.42-151.54 146z"/><path d="m431.66 470.94 150.97-145.45 15.13-8.05-2.64-4.97-15.83 8.42-151.54 146z" opacity=".6"/><path fill="#37474f" d="m605.47 313.8-18.02 9.58-3.1-5.84 18.01-9.57z"/><path fill="#d3766a" d="M612.65 259.91c3.27 15.15 2.29 34.83 1.06 40.43-1.54 6.98-21.34 15.04-26.63 16.82-2.26.76-5.78-18.98-3.38-19.84 2.09-.75 15.57-6.81 16.07-8.09.29-.73 2.62-17.44 5.63-30.19 2.25-9.52 6.28-3.67 7.26.88Z"/><path fill="#d3766a" d="M581.83 314.11c1.15.11 1.1.71-.62 1.82-1.74 1.13-9.48 4.06-8.22 6.68 1.26 2.63 12.14-1.69 14.86-3.77 2.73-2.07 6.4-6.38 6.4-6.38-2.29.42-7.93.89-12.42 1.65"/><path fill="#d3766a" d="M589.67 296.1c-6.57 1.28-14.75 2.73-20.16 7.75a3.7 3.7 0 0 0-1.18 2.09c-2.47 2.21-2.16 4.04-2.16 4.04-1.67 2.76-1.1 4.59-1.1 4.59s-2.87 2.63-1.57 4.62c1.45 2.24 5.19-1.88 8.64-2.89 7.9-2.31 19.77-3.39 22.11-3.83l-4.58-16.36Z"/><path d="M578.71 308.05c-2.31.73-4.6 1.38-6.8 2.42-2.41 1.14-4.55 2.64-6.75 4.11-.07.05-.14-.05-.08-.1a27.97 27.97 0 0 1 13.6-6.53c.12-.02.15.07.03.11Zm-.71-4.97c-2.21.83-6.08 2.32-11.79 6.95-.02.01-.05-.01-.03-.03a25.2 25.2 0 0 1 11.78-7.03c.14-.04.19.05.04.1Zm-.43-2.66c-3.7 1.56-5.84 3.01-9.22 5.52-.02.01-.05-.02-.03-.03 3.55-3.26 5.2-4.04 9.22-5.62.14-.05.18.07.04.13Z" fill="#263238"/><path fill="#ebebeb" d="m616.76 278.64-14.94-5.86s1.42-10.39 3.61-16.87 4.75-7.39 7.9 2.12 3.42 20.61 3.42 20.61Z"/><path fill="#263238" d="M603.07 270.04c1.11.25 11.76 4.45 12.75 5.04.05.03.01.11-.04.1a173 173 0 0 1-12.73-5.08c-.03-.02 0-.07.03-.06Zm13.3 8.45.38.17.03.02v-.04a62.7 62.7 0 0 0-1.18-12.26c-.28-1.34-.6-2.68-1.02-3.99.25 1.35.5 2.69.71 4.04.2 1.35.41 2.7.56 4.06.18 1.35.33 2.71.47 4.07l.42 4.08.03-.02z"/><path fill="#ebebeb" d="M650.7 304c-.08.14-46.88 9.56-47.4 9.16-.73-.56-1.59-49.02 4.01-60.64 1.4-2.9 7.75-5.87 10.99-3.77 9.4 6.08 12.24 12.12 15.27 16.92 2.24 3.56 5.31 9.77 8.22 16.17 4.81 10.56 9.21 21.63 8.91 22.14Z"/><path fill="#faa12f" d="M619.12 248.72s-4.09 17.02-4.51 21.25c-.57 5.79 3.67 42.56 3.67 42.56l33.26-7.99s-12.93-35.2-22.53-46.8c-7.56-9.12-9.89-9.03-9.89-9.03Zm-10.77 2.72s-1.32 15.1-1.7 17.4c-.39 2.3.39 45.74.39 45.74l-4.42-.8s-.58-30.06.87-45.68c1.45-15.61 4.87-16.66 4.87-16.66Z"/><path d="m616.71 298.14 30.06-5.45-1.43-3.39-28.99 5.26zm-14.21 2.57 4.3-.78-.05-3.64-4.24.77v3.65Zm14.88 3.72 31.84-5.77a259 259 0 0 0-1.38-3.39l-30.83 5.59zm-14.85 2.69 4.37-.79-.06-3.63-4.33.78z" fill="#ebebeb"/><path fill="#d3766a" d="M613 257.47c1.96-.46 4.95-5.23 5.66-8.72.05-.24-.94-2.3-2.02-4.86a58 58 0 0 1-1.85-4.94l-9.51 5.71s2.08 3.12 2.96 5.99c.07.24.12.47.14.7 0 .03 0 .07.02.12.19 1.34 1.53 6.74 4.6 6.02Z"/><path fill="#263238" d="m608.38 251.34.02.12c.34-.06.7-.15 1.08-.28 5.92-1.99 5.11-9.79 4.78-11.91l-8.97 5.38s2.09 3.12 2.96 5.98c.07.24.11.48.14.7Z"/><path fill="#d3766a" d="M612.79 226c2.14 3.37 3.12 14.55 1.15 17.65-2.85 4.48-8.98 6.52-13.16 2.76-4.05-3.65-5.07-18.24-2.74-21.2 3.44-4.36 11.59-4.19 14.75.79"/><g fill="#263238"><path d="M603.49 235.17s.06.03.06.06c.01.76.16 1.62.85 1.84.02 0 .02.04 0 .04-.84-.08-1.02-1.22-.91-1.94"/><path d="M604.12 234.35c1.21-.15 1.42 2.28.3 2.42-1.1.14-1.32-2.29-.3-2.42m-4.65 1.04s-.06.04-.05.07c.09.75.07 1.63-.59 1.94-.02 0-.02.05 0 .04.82-.19.84-1.35.63-2.05Z"/><path d="M598.73 234.66c-1.22.01-1.1 2.45.03 2.44 1.11-.01.99-2.45-.03-2.44m6.25-1.51c-.34-.05-.64-.16-.97-.25-.37-.1-.68-.14-.94-.44-.14-.16-.12-.48.03-.63.34-.35.82-.35 1.27-.24.49.11.84.32 1.15.71.3.38-.09.92-.54.85m-7.18.64c.33-.08.62-.22.94-.34.36-.13.66-.2.9-.53.13-.17.07-.49-.08-.62-.37-.32-.85-.27-1.29-.13-.48.15-.81.4-1.08.82-.26.41.18.91.61.8m7.45 8.29c-.16.19-.32.45-.59.5-.26.05-.58-.05-.83-.12-.02 0-.05.02-.03.04a1 1 0 0 0 .99.32c.34-.09.48-.4.53-.72 0-.04-.05-.06-.08-.03Z"/><path d="M604.26 239.89c-.36.69-.95 1.1-1.61 1.29-.29.09-.61.12-.92.12h-.18l-.17-.01c-.09 0-.14-.07-.17-.16s0-.06 0-.08v-.07c-.07-.58-.09-1.46-.09-1.46-.2.12-1.24.71-1.25.4-.07-2.52-.15-5.32.31-7.84.01-.08.14-.08.14 0 .16 2.42-.1 4.85.03 7.28.33-.16.87-.45 1.18-.47.08.02.01 1.71.06 1.97v.03c.98.04 1.69-.32 2.58-1.06.05-.05.12 0 .08.06Z"/></g><path fill="#263238" d="M597.01 228.4c.08-.34.3-1.21.72-1.3.54-.12 1.05.71 2.11.8 1.49.14 3.7-1.86 5.76-1.68 2 .17 3.55 1.83 4.56 5.24 1.01 3.42 4.26 5.73 4.63 3.3 0-.09.03-.24.06-.47-.31-3.39-1.06-6.7-2.07-8.29-3.15-4.98-11.31-5.15-14.75-.79-.49.62-.83 1.75-1.03 3.18Z"/><path fill="#d3766a" d="M612.9 235.3s1.54-4.07 3.33-3.61 1.24 5.94-.43 7.09-2.77-.37-2.77-.37l-.14-3.12Z"/><path fill="#263238" d="M616.03 233.26s.05.03.02.05c-1.16.85-1.54 2.22-1.7 3.58.26-.58.72-.97 1.48-.68.04.02.02.08-.02.08-.56.02-.92.21-1.17.72-.18.36-.25.79-.35 1.18-.03.13-.26.12-.25-.02v-.03c-.45-1.64.25-4.27 1.98-4.88Z"/><path fill="#faa12f" d="M595.59 230.96s-.34-11.1 9.55-11.49c9.9-.38 10.42 10.71 10.42 10.71z"/><path fill="#faa12f" d="m594.83 230.15 21.45-.84.07 1.57-21.46.84z"/><path fill="#faa12f" d="m605.38 229.79-4.46.17.62-10.92 4.47-.17z"/><path d="m605.38 229.79-4.46.17.62-10.92 4.47-.17z" opacity=".1"/><path fill="#d3766a" d="M626.81 258.83c7.98 13.31 13.6 33.72 12.84 39.39-.99 7.38-24.64 18.65-29.67 21.08-2.14 1.03-8.1-18.11-5.83-19.27 1.98-1 17.48-8.03 17.78-8.78.28-.73-1.58-17.41-2.59-30.8-.73-9.75 3.36-8.48 7.47-1.62"/><path fill="#d3766a" d="M608.45 298.44s-2.13.99-7.79 1.78c-4.42.62-14.38 5.16-17.58 17.29-1.23 4.65 1.5 7.54 3.63 2.94 1.5-3.24 2.26-5.62 3.05-6.54 0 0 1.29 5.32 4.24 6.49 1.32.52 4.94 1.87 7.91 2.51 0 0 .31-.61.6-1.44 0 0 3.76 1.35 6.84-1.9l4.47-1.98-5.38-19.16Z"/><path fill="#d3766a" d="M597.04 301.96c-1.57 1.73-4.85 5.46-6.47 9.44-1.8 4.42-4.07 13.42-.8 14.71 2.4.95 3.57-2.41 3.57-2.41s-.16 3.92 2.2 4.3c2.15.35 2.9-2.3 2.9-2.3s.31 2.39 2.45 2.33c2.57-.08 1.49-5.08 4.02-7.4.57-.52-7.88-18.66-7.88-18.66Z"/><path fill="#263238" d="M595.56 312.51a19.03 19.03 0 0 0-2.27 11.11c.01.1.09.14.1.05a47 47 0 0 1 2.21-11.14c0-.02-.03-.04-.04-.02m4.41 1.95c-.88 1.72-2.37 6.91-1.61 11.22.02.1.1.13.1.04a50.3 50.3 0 0 1 1.55-11.25c0-.03-.03-.04-.04-.01m-17.08 6.93c-1.56-10.03 9.76-21.34 19.57-21.44-1.31.2-2.59.5-3.83.95-7.83 2.72-16.18 11.82-15.75 20.49Z"/><path fill="#ebebeb" d="m635.56 275.14-15.99-1.33s-1.62-10.36-1.37-17.2 2.44-8.44 8.18-.24c5.74 8.21 9.18 18.77 9.18 18.77"/><g fill="#263238"><path d="M619.98 270.82c1.14-.08 12.54.9 13.65 1.18.05.01.04.1-.01.11-1.15.08-12.55-.94-13.65-1.22-.03 0-.03-.06 0-.06Z"/><path d="M618.02 264.16c.1.48.22.96.34 1.43l.12.48-.05-.58c-.09-1.18-.12-2.36-.17-3.54 0-.03.05-.03.05 0a437 437 0 0 1 1.09 9.42l.16 1.62c.02.2-.03.6.16.71.2.12.61.14.84.17.05 0 .04.1 0 .09-.28-.03-.57-.01-.85-.05-.12-.01-.22-.03-.3-.12-.11-.13-.12-.35-.14-.51l-.12-.88a81 81 0 0 1-.38-3.45l-.21-2.18c-.12-.38-.23-.77-.31-1.16a36 36 0 0 1-.22-1.44Z"/></g><path fill="#263238" d="M587.23 319.33c.63-2.31 1.33-4.76 3.17-6.43-.63 1.79-1.36 3.58-1.9 5.41a17.7 17.7 0 0 1 1.04-4.48l.4.26c-1.02 1.32-1.93 3.74-2.71 5.24"/></svg>